SplineFontDB: 1.0
FontName: Tuffy_Bold_Italic
FullName: Tuffy Bold Italic
FamilyName: Tuffy
Weight: Bold
Copyright: Created by Thatcher Ulrich (http://tulrich.com) with FontForge 1.0 (http://fontforge.sf.net)\n\nThis font, including hint instructions, has been donated to the Public Domain.  Do whatever you want with it.\n
Comments: 2004-9-1: Created.
Version: 001.000
ItalicAngle: 0
UnderlinePosition: -100
UnderlineWidth: 50
Ascent: 780
Descent: 220
NeedsXUIDChange: 1
XUID: [1021 745 1046372284 10966600]
FSType: 0
OS2Version: 0
OS2_WeightWidthSlopeOnly: 0
OS2_UseTypoMetrics: 0
CreationTime: 1166531129
ModificationTime: 1169793009
PfmFamily: 33
TTFWeight: 700
TTFWidth: 5
LineGap: 93
VLineGap: 0
Panose: 2 11 8 3 6 1 0 0 0 0
OS2TypoAscent: 0
OS2TypoAOffset: 1
OS2TypoDescent: 0
OS2TypoDOffset: 1
OS2TypoLinegap: 0
OS2WinAscent: 0
OS2WinAOffset: 1
OS2WinDescent: 0
OS2WinDOffset: 1
HheadAscent: 0
HheadAOffset: 1
HheadDescent: 0
HheadDOffset: 1
OS2Vendor: 'PfEd'
ScriptLang: 2
 1 latn 1 dflt 
 1 DFLT 1 dflt 
TtfTable: cvt  4
!$MDh
EndTtf
LangName: 1033 "" "" "" "" "" "" "" "" "" "Thatcher Ulrich" "" "http://tulrich.com+AAoA" "http://tulrich.com+AAoA" "Public Domain+AAoA" 
Encoding: Custom
UnicodeInterp: none
NameList: Adobe Glyph List
DisplaySize: -48
AntiAlias: 1
FitToEm: 1
WinInfo: 0 15 13
BeginPrivate: 7
BlueValues 23 [-16 2 522 538 708 728]
OtherBlues 0 
StdHW 4 [66]
StdVW 5 [70]

StemSnapH 6 [66] 

StemSnapV 6 [70] 

BlueScale 8 0.039625
EndPrivate
Grid
-24 262 m 2
 772 262 l 0
531 830 m 25
 531 -16 l 25
-20 710 m 2
 776 710 l 0
-22 524 m 2
 774 524 l 0
490 830 m 25
 490 -16 l 25
562 832 m 25
 562 -14 l 25
-24 355 m 2
 772 355 l 0
-28 -14 m 2
 768 -14 l 0
70 832 m 25
 70 -14 l 25
EndSplineSet
TeXData: 1 0 0 315621 157810 105207 456131 1048576 105207 783286 444596 497025 792723 393216 433062 380633 303038 157286 324010 404750 52429 2506097 1059062 262144
BeginChars: 203 195
StartChar: exclam
Encoding: 1 33 1
Width: 206
Flags: HW
HStem: 704 20G<88 108>
Fore
202.698 215 m 1xd0
 199.085 198 162.535 186 148.535 186 c 1
 132.793 186.328 102.085 198 105.698 215 c 1
 184.113 678 l 1
 189.64 704 236.891 724 261.891 724 c 1
 287.891 724 326.428 703 321.326 679 c 1
 202.698 215 l 1xd0
EndSplineSet
Refer: 14 46 N 1 0 0 1 0 0 2
EndChar
StartChar: quotedbl
Encoding: 2 34 2
Width: 427
Flags: HW
VStem: 63 73<716 725.547> 206 73<716 725.547>
Back
216 533 m 1
 205.999 716 l 1
 206.001 740.105 223.663 753.054 241.063 753.054 c 0
 241.709 753.054 242.355 753.036 243 753 c 0
 258.55 753 274.101 744.044 278.045 725.486 c 0
 278.667 722.562 278.999 719.402 278.999 716 c 1
 269 533 l 1
 268 518 254 510 242 510 c 0
 231.083 510 219.338 515.794 216.555 528.888 c 0
 216.278 530.186 216.09 531.557 216 533 c 1
73 533 m 1
 62.999 716 l 1
 63.001 740.105 80.6631 753.054 98.0635 753.054 c 0
 98.709 753.054 99.3555 753.036 100 753 c 0
 115.55 753 131.101 744.044 135.045 725.486 c 0
 135.667 722.562 135.999 719.402 135.999 716 c 1
 126 533 l 1
 125 518 111 510 99 510 c 0
 88.083 510 76.3379 515.794 73.5547 528.888 c 0
 73.2783 530.186 73.0898 531.557 73 533 c 1
EndSplineSet
Fore
369.293 533 m 1
 398.189 716 l 1
 403.315 740.105 443.729 753.054 461.13 753.054 c 0
 461.775 753.054 462.418 753.036 463.055 753 c 0
 478.605 753 512.253 744.044 512.252 725.486 c 0
 512.252 722.562 511.913 719.402 511.189 716 c 1
 462.293 533 l 1
 458.104 518 422.404 510 410.404 510 c 0
 399.487 510 368.974 515.794 368.974 528.888 c 0
 368.973 530.186 369.076 531.557 369.293 533 c 1
186.293 533 m 1
 215.189 716 l 1
 220.315 740.105 260.729 753.054 278.13 753.054 c 0
 278.775 753.054 279.418 753.036 280.055 753 c 0
 295.605 753 329.252 744.044 329.252 725.486 c 0
 329.252 722.562 328.913 719.402 328.189 716 c 1
 279.293 533 l 1
 275.104 518 239.404 510 227.404 510 c 0
 216.487 510 185.974 515.794 185.974 528.888 c 0
 185.973 530.186 186.076 531.557 186.293 533 c 1
EndSplineSet
EndChar
StartChar: numbersign
Encoding: 3 35 3
Width: 782
Flags: HW
Back
468 267 m 0
 468 432 l 0
 301 432 l 0
 301 267 l 0
 468 267 l 0
541 198 m 0
 541 26 l 1
 468 26 l 1
 468 198 l 0
 301 198 l 0
 301 26 l 1
 228 26 l 1
 228 198 l 0
 58 198 l 1
 58 267 l 1
 228 267 l 0
 228 432 l 0
 58 432 l 1
 58 500 l 1
 228 500 l 0
 228 685 l 1
 301 685 l 1
 301 500 l 0
 468 500 l 0
 468 685 l 1
 541 685 l 1
 541 500 l 0
 717 500 l 1
 717 432 l 1
 541 432 l 0
 541 267 l 0
 717 267 l 1
 717 198 l 1
 541 198 l 0
EndSplineSet
Fore
484.854 291 m 0
 509.723 408 l 0
 438.723 408 l 0
 413.854 291 l 0
 484.854 291 l 0
583.984 174 m 0
 551.889 23 l 1
 427.889 23 l 1
 459.984 174 l 0
 388.984 174 l 0
 356.889 23 l 1
 232.889 23 l 1
 264.984 174 l 0
 94.9844 174 l 1
 119.854 291 l 1
 289.854 291 l 0
 314.723 408 l 0
 144.723 408 l 1
 169.38 524 l 1
 339.38 524 l 0
 373.602 685 l 1
 497.602 685 l 1
 463.38 524 l 0
 534.38 524 l 0
 568.602 685 l 1
 692.602 685 l 1
 658.38 524 l 0
 834.38 524 l 1
 809.723 408 l 1
 633.723 408 l 0
 608.854 291 l 0
 784.854 291 l 1
 759.984 174 l 1
 583.984 174 l 0
EndSplineSet
KernsSLIFO: 4 -27 0 0
EndChar
StartChar: dollar
Encoding: 4 36 4
Width: 453
Flags: HW
Back
9 167.723 m 1
 129.945 208.2 l 1
 163 138 182 104 259 104 c 1
 334 104 362 136 362 192 c 1
 362 247.74 317.34 282.649 227 306 c 0
 135.309 329.984 22 375.824 22 502 c 1
 22 635.282 129.699 688.3 250.579 688.3 c 1
 362.644 688.3 429.381 650.016 472.7 562.029 c 1
 344.286 523.993 l 1
 323.546 561.219 304.782 571 249 571 c 1
 195.354 571 156 564.667 156 502 c 1
 156 438.287 234.48 421.538 284.93 405.788 c 0
 386.253 371.553 496 327.905 496 192 c 1
 496 60 396 -14 259 -14 c 1
 124 -14 56 50 9 167.723 c 1
EndSplineSet
Fore
370.512 750.442 m 1
 453.512 750.442 l 1
 439.759 685.739 l 1
 520.326 679 568.823 639 593.882 564 c 1
 456.38 524 l 1
 444.119 551 440.819 559 414.307 566 c 1
 379.447 402 l 1
 469.434 369 564.656 323 535.961 188 c 0
 513.643 83 423 0 291.347 -12.4834 c 1
 277.948 -75.5186 l 1
 195.948 -75.5186 l 1
 209.35 -12.4688 l 1
 103.149 -4 54.3428 91 45.71 168 c 1
 174.212 208 l 1
 184.135 170 196.656 116 235.381 110 c 1
 278.317 312 l 1
 179.206 335 103.897 390 130.042 513 c 0
 151.297 613 257.538 680 356.775 685.82 c 1
 370.512 750.442 l 1
303.824 432 m 1
 333.157 570 l 1
 288.095 565 267.805 526 264.404 510 c 0
 254.839 465 270.013 447 303.824 432 c 1
353.941 282 m 1
 316.531 106 l 1
 368.869 117 394.096 151 402.173 189 c 0
 406.637 210 409.627 257 353.941 282 c 1
EndSplineSet
EndChar
StartChar: percent
Encoding: 5 37 5
Width: 701
Flags: HW
Back
430 182 m 0
 430 140 457 107 499 107 c 0
 538 107 571 138 571 182 c 0
 571 221 540 255 499 255 c 0
 461 255 430 221 430 182 c 0
367 182 m 0
 367 255 426 314 500 314 c 0
 574 314 634 255 634 182 c 0
 634 109 574 51 500 51 c 0
 426 51 367 109 367 182 c 0
108 526 m 0
 108 484 136 451 178 451 c 0
 217 451 250 482 250 526 c 0
 250 565 219 599 178 599 c 0
 140 599 108 565 108 526 c 0
46 526 m 0
 46 599 105 658 179 658 c 0
 253 658 313 599 313 526 c 0
 313 453 253 395 179 395 c 0
 105 395 46 453 46 526 c 0
202 67 m 1
 129 67 l 1
 481 644 l 0
 551 644 l 1
 202 67 l 1
EndSplineSet
Fore
497.473 181 m 0
 490.926 150.2 506.058 132 530.058 132 c 0
 554.058 132 575.614 148.733 582.473 181 c 0
 588.491 209.315 575.225 234 550.738 234 c 0
 527.938 234 503.491 209.315 497.473 181 c 0
392.437 180.828 m 0
 410.441 265.537 490.647 334 572.994 334 c 0
 654.725 334 706.458 265.613 688.473 181 c 0
 670.706 97.4121 590.32 31 508.589 31 c 0
 426.243 31 374.689 97.3359 392.437 180.828 c 0
262.592 525 m 0
 256.046 494.2 271.177 476 295.177 476 c 0
 319.177 476 340.733 492.733 347.592 525 c 0
 353.61 553.315 340.344 578 315.857 578 c 0
 293.058 578 268.61 553.315 262.592 525 c 0
157.686 525.44 m 0
 175.619 609.81 255.768 678 338.113 678 c 0
 420.397 678 472.577 609.614 454.592 525 c 0
 436.825 441.412 355.993 375 273.709 375 c 0
 191.362 375 139.866 441.607 157.686 525.44 c 0
249.328 58 m 1
 146.854 58.8301 l 1
 601.093 654.029 l 0
 698.8 653 l 1
 249.328 58 l 1
EndSplineSet
EndChar
StartChar: ampersand
Encoding: 6 38 6
Width: 627
Flags: HW
Back
367 600 m 17xf4
 356 631 306 660 264 660 c 1
 211 660 156 626 156 554 c 1xf4
 156 478 208 438 272 438 c 1
 355 438 l 1
 355 369 l 1
 274 369 l 2
 183 369 116 308 116 210 c 0
 116 121 188 54 269 54 c 1
 352 54 407 125 407 199 c 1xfa
 302 199 l 1
 302 267 l 1
 557 267 l 1
 557 198 l 1xf1
 480 198 l 1
 480 113 421 -15 269 -15 c 1
 154 -15 39 62 39 203 c 0xfa
 39 340 120 392 173 404 c 1
 130 418 79 468 79 554 c 0
 79 654 158 729 265 729 c 0
 349 729 403 688 428 637 c 9
 367 600 l 17xf4
EndSplineSet
Fore
468.168 570.05 m 17
 461.994 592.758 438.636 624 396.636 624 c 1
 356.836 624 310.218 598.981 298.956 546 c 1
 287.258 490.966 321.042 462 370.201 462 c 1
 453.201 462 l 1
 428.332 345 l 1
 347.332 345 l 2
 277.332 345 214.688 276 198.321 199 c 0
 186.631 144 221.556 92 288.556 92 c 1
 365.556 92 405.193 132.641 414.197 175 c 1
 329.197 175 l 1
 351.729 281 l 1
 637.729 281 l 1
 615.346 175.7 l 1
 538.346 175.7 l 1
 521.407 96.0078 426.474 -26 263.474 -26 c 1
 134.474 -26 42.8164 65 69.5986 191 c 0
 101.781 342.41 192.472 388 231.47 404.141 c 1
 200.849 418 150.769 464.668 168.056 546 c 0
 193.562 666 305.717 742 422.717 742 c 0
 518.067 742 567.991 688.501 582.225 621.953 c 9
 468.168 570.05 l 17
EndSplineSet
EndChar
StartChar: quotesingle
Encoding: 7 39 7
Width: 227
Flags: HWO
Back
58 513 m 1
 58 756 l 1
 131 756 l 1
 131 513 l 1
 58 513 l 1
EndSplineSet
Fore
186.293 533 m 1
 215.189 716 l 1
 220.315 740.105 260.729 753.054 278.13 753.054 c 0
 278.775 753.054 279.418 753.036 280.055 753 c 0
 295.605 753 329.252 744.044 329.252 725.486 c 0
 329.252 722.562 328.913 719.402 328.189 716 c 1
 279.293 533 l 1
 275.104 518 239.404 510 227.404 510 c 0
 216.487 510 185.974 515.794 185.974 528.888 c 0
 185.973 530.186 186.076 531.557 186.293 533 c 1
EndSplineSet
EndChar
StartChar: parenleft
Encoding: 8 40 8
Width: 319
Flags: HW
Back
131 -41 m 1
 51 82 15 224 15 361 c 0
 15 487 54 642 131 763 c 1
 218 763 l 1
 128 632 89 487 89 356 c 0
 89 228 133 83 218 -41 c 1
 131 -41 l 1
EndSplineSet
Fore
132.285 -41 m 1
 58.6504 86.2832 61.5986 219.229 91.7334 361 c 0
 119.435 491.327 179.842 638.651 303.37 763.807 c 1
 431.98 763 l 1
 314.275 632 244.515 487 216.67 356 c 0
 189.463 228 202.574 83 261.085 -41 c 1
 132.285 -41 l 1
EndSplineSet
EndChar
StartChar: parenright
Encoding: 9 41 9
Width: 314
Flags: HW
Back
125 -47 m 1
 39 -47 l 1
 123 76 168 227 168 355 c 0
 168 475 124 632 39 757 c 1
 125 757 l 1
 202 636 242 481 242 355 c 0
 242 221 204 74 125 -47 c 1
EndSplineSet
Fore
156.01 -47 m 1
 29.0098 -47 l 1
 139.154 76 216.25 227 243.458 355 c 0
 268.965 475 258.336 632 199.905 757 c 1
 327.068 756.371 l 1
 397.7 631.346 397.131 485.191 369.458 355 c 0
 339.983 216.333 282.557 78.2139 156.01 -47 c 1
EndSplineSet
EndChar
StartChar: asterisk
Encoding: 10 42 10
Width: 508
Flags: HW
Back
286 278 m 1
 351 165 l 1
 292 129 l 1
 226 243 l 1
 160 129 l 1
 100 164 l 1
 168 278 l 1
 28 278 l 1
 28 347 l 1
 167 347 l 1
 96 469 l 1
 155 504 l 1
 226 381 l 1
 296 506 l 1
 355 470 l 1
 287 347 l 1
 420 347 l 1
 420 278 l 1
 286 278 l 1
EndSplineSet
Fore
406.383 254 m 1
 445.803 164.57 l 1
 332.105 104 l 1
 295.329 186.563 l 1
 227.105 104 l 1
 137.484 163.167 l 1
 216.371 254 l 1
 81.9893 254 l 1
 106.858 371 l 1
 240.711 371 l 1
 194.201 462 l 1
 307.669 521.655 l 1
 346.482 432 l 1
 428.368 522.81 l 1
 515.414 463 l 1
 431.599 371 l 1
 560.858 371 l 1
 535.989 254 l 1
 406.383 254 l 1
EndSplineSet
EndChar
StartChar: plus
Encoding: 11 43 11
Width: 475
Flags: HW
HStem: 254 117<280 420>
VStem: 163 117<114 254>
Back
33 347 m 1
 183 347 l 1
 183 499 l 1
 252 499 l 1
 252 347 l 1
 402 347 l 1
 402 278 l 1
 252 278 l 1
 252 126 l 1
 183 126 l 1
 183 278 l 1
 33 278 l 1
 33 347 l 1
EndSplineSet
Fore
111.922 371.3 m 1
 241.858 371 l 1
 273.104 518 l 1
 390.496 518.432 l 1
 358.858 371 l 1
 499.223 371.3 l 1
 473.989 254 l 1
 333.989 254 l 1
 304.531 114 l 1
 187.231 114 l 1
 216.989 254 l 1
 86.9893 254 l 1
 111.922 371.3 l 1
EndSplineSet
EndChar
StartChar: comma
Encoding: 12 44 12
Width: 217
Flags: HW
Back
150.5 46 m 1
 150.5 -31 101 -91 90 -108 c 1
 63 -93 l 1
 73 -78 98 -41 98 -6 c 0
 69.0195 -6 45.5 17.0195 45.5 46 c 0
 45.5 74.9805 69.0195 98.5 98 98.5 c 0
 126.98 98.5 150.5 74.9805 150.5 46 c 1
EndSplineSet
Fore
200.741 67 m 1
 183.736 -13 104.316 -82.3379 77.7441 -100 c 1
 46.208 -79 l 1
 53.4688 -70.3789 84.4736 -26 81.0244 -14 c 1
 55.2998 -8 31.1982 17.3984 41.7412 67 c 1
 49.8184 105 93.9268 145.5 135.927 145.5 c 1
 191.927 145.5 207.968 101 200.741 67 c 1
EndSplineSet
EndChar
StartChar: hyphen
Encoding: 13 45 13
Width: 469
Flags: HW
HStem: 251 117<48 425>
Back
48 344 m 1
 379 344 l 1
 379 275 l 1
 48 275 l 1
 48 344 l 1
EndSplineSet
Fore
126.221 368 m 1
 503.221 368 l 1
 478.352 251 l 1
 101.352 251 l 1
 126.221 368 l 1
EndSplineSet
EndChar
StartChar: period
Encoding: 14 46 14
Width: 217
Flags: HW
HStem: -16 21G<85.9199 130.08>
Back
45.5 46 m 0
 45.5 74.9805 69.0195 98.5 98 98.5 c 0
 126.98 98.5 150.5 74.9805 150.5 46 c 0
 150.5 17.0195 126.98 -6.5 98 -6.5 c 0
 69.0195 -6.5 45.5 17.0195 45.5 46 c 0
EndSplineSet
Fore
41.6035 64 m 0
 50.9902 108.16 94.4482 144 138.608 144 c 0
 182.769 144 210.99 108.16 201.604 64 c 0
 192.217 19.8398 148.759 -16 104.599 -16 c 0
 60.4385 -16 32.2168 19.8398 41.6035 64 c 0
EndSplineSet
EndChar
StartChar: slash
Encoding: 15 47 15
Width: 414
Flags: HW
Back
61 0 m 1
 -16 0 l 1
 334 754 l 0
 411 754 l 1
 61 0 l 1
EndSplineSet
Fore
119.642 0 m 1
 -20.332 0 l 1
 459.57 753.991 l 0
 590.268 754 l 1
 119.642 0 l 1
EndSplineSet
KernsSLIFO: 15 -70 0 0
EndChar
StartChar: zero
Encoding: 16 48 16
Width: 575
Flags: HW
HStem: -26 118<274.39 290> 624 118<288 290>
VStem: 44 131<369 391> 396 131<369 391>
Back
44 355 m 1
 44 555 131 729 279 729 c 1
 427 729 507 555 507 355 c 1
 507 156 423 -15 275 -15 c 1
 127 -15 44 156 44 355 c 1
121 355 m 1
 121 219 167 54 275 54 c 1
 384 54 430 219 430 355 c 1
 430 492 388 660 279 660 c 1
 171 660 121 492 121 355 c 1
EndSplineSet
Fore
122.434 369 m 1
 164.831 568.465 289.498 730 443.166 730 c 1
 598.307 730 647.831 568.465 605.434 369 c 1
 560.276 156.554 435.979 -16 281.599 -16 c 1
 127.192 -16 77.2764 156.554 122.434 369 c 1
253.434 369 m 1
 226.831 243.844 229.538 102 306.681 102 c 1
 384.739 102 447.831 243.844 474.434 369 c 1
 498.78 483.541 496.045 612 418.085 612 c 1
 340.844 612 277.78 483.541 253.434 369 c 1
EndSplineSet
EndChar
StartChar: one
Encoding: 17 49 17
Width: 575
Flags: HW
Back
279 623 m 1
 177 537 l 1
 133 584 l 1
 280 711 l 1
 356 711 l 1
 356 0 l 1
 279 0 l 1
 279 623 l 1
EndSplineSet
Fore
361.618 548.646 m 1
 286.152 490 l 1
 222.133 584 l 1
 397.869 711 l 1
 527.128 711 l 1
 376 0 l 1
 245 0 l 1
 361.618 548.646 l 1
EndSplineSet
EndChar
StartChar: two
Encoding: 18 50 18
Width: 575
Flags: HW
HStem: 0 117<191 518> 614 117<277 285>
VStem: 368 128<479 497>
Back
128 542 m 13
 59.999 569 l 21
 85 658 179 730 278 730 c 4
 381 730 482.999 664 482.999 514 c 4
 482.999 377 336.278 298.04 289 264 c 4
 239 228 133 134 133 69 c 5
 506 69 l 21
 506 0 l 5
 43 0 l 5
 43 159 163 258 266.001 330 c 4
 318.365 366.604 407.999 415 407.999 514 c 4
 407.999 610 343 661 278 661 c 4
 216 661 153 621 128 542 c 13
EndSplineSet
Fore
298.805 526 m 9
 189.896 560.327 l 17
 233.399 657.438 341.849 731 432.379 731 c 1
 528.524 731 642.664 690 600.578 492 c 1
 578.897 390 427.941 282 356.841 238.443 c 0
 286.413 195.299 221.196 139 216.521 117 c 1
 542.869 117 l 17
 518 0 l 1
 44.9512 0 l 1
 69.6074 116 108.999 207 297.443 322 c 1
 349.458 355 457.699 422 473.428 496 c 0
 492.559 586 457.91 614 407.51 614 c 1
 365.559 614 326.509 586.306 298.805 526 c 9
EndSplineSet
EndChar
StartChar: three
Encoding: 19 51 19
Width: 575
Flags: HW
Back
60 123 m 9xd0
 136 146 l 17
 161 92 219 54 272 54 c 1
 352 54 424 99 424 197 c 1xd0
 424 294 351 338 274 338 c 0
 236 338 l 1
 236 403 l 1
 274 403 l 0
 345 403 407 444 407 530 c 1
 407 606 363 663 273 663 c 1
 270 663 l 0
 219 663 167 636 146 586 c 9
 79 617 l 17
 113 684 192 731 273 731 c 1
 396 731 484 648 484 530 c 1xe0
 484 435 420 387 389 368 c 1
 432 355 501 300 501 197 c 1
 501 63 399 -15 272 -15 c 1
 196 -15 98 35 60 123 c 9xd0
EndSplineSet
Fore
94.0625 160.251 m 9
 227.533 194.142 l 17
 235.769 137.124 270.527 102 313.681 102 c 1
 385.681 102 434.695 135 449.999 207 c 1
 465.353 279.234 414.753 318 331.593 318 c 0
 293.593 318 l 1
 315.699 422 l 1
 353.854 422.731 l 0
 424.854 422.731 471.22 443.267 487.954 522 c 1
 499.22 575 466.51 614 412.51 614 c 1
 409.595 614.4 l 0
 361.595 614.4 335.495 581 318.972 555.013 c 9
 203.881 587.519 l 17
 256.68 675.96 335.166 730 437.166 730 c 1
 581.166 730 645.908 648.806 618.954 522 c 1
 601.268 438.791 533.519 403.749 500.772 387.107 c 1
 543.581 374.631 601.91 305.848 580.899 207 c 1
 551.991 71 442.599 -16 288.599 -16 c 1
 182.599 -16 107.495 44.6709 94.0625 160.251 c 9
EndSplineSet
EndChar
StartChar: four
Encoding: 20 52 20
Width: 575
Flags: HW
Back
417 705.688 m 1
 417 262 l 9
 509 262 l 17
 509 194 l 1
 417 194 l 1
 417 0 l 1
 340 0 l 1
 340 194 l 1
 38 194 l 9
 334 711 l 1
 340 711 l 1
 417 711 l 1
 420 711 l 1
 417 705.688 l 1
342 600.423 m 1
 153 263 l 1
 342 263 l 1
 342 600.423 l 1
EndSplineSet
Fore
601.064 706 m 1
 511.706 285.6 l 9
 603.706 285.6 l 17
 579.135 170 l 1
 487.135 170 l 1
 451 0 l 1
 320 0 l 1
 356.135 170 l 1
 56.4375 170 l 9
 461.336 711 l 1
 471.128 711 l 1
 602.027 711 l 1
 605.027 711 l 1
 601.064 706 l 1
438.213 539.684 m 1
 245.722 287 l 1
 384.504 287 l 1
 438.213 539.684 l 1
EndSplineSet
EndChar
StartChar: five
Encoding: 21 53 21
Width: 575
Flags: HW
Back
270 374 m 1
 208 374 133 348 89 328 c 9
 138 711 l 1
 466 711 l 1
 466 642 l 1
 200 642 l 1
 173 424 l 1
 200 438 232 440 273 440 c 1
 402 440 507 345 507 204 c 1
 507 102 423 -15 287 -15 c 1
 174 -15 83 65 56 161 c 9
 132 175 l 17
 149 125 191 54 287 54 c 1
 373 54 431 119 431 205 c 1
 431 300 354 374 270 374 c 1
EndSplineSet
Fore
363.607 351 m 1
 298.607 351 278.419 336 254.506 327 c 1
 162.796 366 l 1
 293.639 711 l 1
 627.128 711 l 1
 602.259 594 l 1
 373.259 594 l 1
 316.075 452 l 1
 344.626 464 348.801 463 389.414 463 c 1
 523.927 463 622.022 362.363 590.274 213 c 1
 566.614 101.685 450.812 -15 297.812 -15 c 1
 136.812 -15 89.3848 66.9404 73.9346 178.47 c 9
 208.316 201.02 l 17
 214.608 144 237.894 103 322.894 103 c 1
 383.894 103 446.718 144.517 461.487 214 c 1
 477.856 291.012 436.607 351 363.607 351 c 1
EndSplineSet
EndChar
StartChar: six
Encoding: 22 54 22
Width: 575
Flags: HW
HStem: -16 115<271 299> 320 118<281 299>
VStem: 58 131<191.823 225> 385 131<207 211>
Back
424 199 m 1
 424 278 362 346 275 346 c 1
 188 346 131 274 131 201 c 1
 131 118 198 58 276 58 c 1
 366 58 424 130 424 199 c 1
208 404 m 1
 230 413 246 419 275 419 c 0
 396 419 497 323 497 199 c 1
 497 98 410 -15 274 -15 c 1
 144 -15 58 94 58 200 c 1
 58 300 117 383 140 425 c 1
 313 740 l 9
 375 703 l 17
 208 404 l 1
EndSplineSet
Fore
428.999 207 m 1
 441.907 267.728 415.495 320 353.019 320 c 1
 290.789 320 245.303 264.883 233.425 209 c 1
 219.854 145.154 251.098 99 307.043 99 c 1
 371.502 99 417.766 154.149 428.999 207 c 1
334.399 430 m 1
 336.284 431.789 379.116 438 381.1 438 c 0
 520.517 438 588.393 340.582 559.999 207 c 1
 536.625 97.0322 422.479 -16 281.599 -16 c 1
 144.979 -16 77.6895 92.6328 102.212 208 c 1
 126.443 322 182.598 398 217.931 448.798 c 1
 426.82 728.815 l 9
 519.987 668 l 17
 334.399 430 l 1
EndSplineSet
EndChar
StartChar: seven
Encoding: 23 55 23
Width: 575
Flags: HW
Back
522 711 m 1
 251 0 l 1
 162 0 l 1
 414 638 l 1
 49 638 l 1
 49 711 l 1
 522 711 l 1
EndSplineSet
Fore
688.078 711 m 1
 316.812 0 l 1
 158.639 0 l 1
 468.068 587 l 1
 173.771 587 l 1
 200.128 711 l 1
 688.078 711 l 1
EndSplineSet
EndChar
StartChar: eight
Encoding: 24 56 24
Width: 575
Flags: HW
HStem: -26 118<261 295> 628 117<276 280>
VStem: 22 131<209 215>
Back
279 54 m 0xf2
 368 54 441 115 441 201 c 1
 441 288 364 353 281 353 c 1
 193 353 123 287 123 201 c 0
 123 112 195 54 279 54 c 0xf2
155 541 m 1xec
 155 467 210 418 281 418 c 1
 351 418 406 465 406 541 c 1
 406 605 364 662 280 662 c 1
 199 662 155 603 155 541 c 1xec
280 731 m 1
 403 731 483 651 483 541 c 1xec
 483 446 425 407 399 384 c 1
 437 355 518 299 518 201 c 1
 518 72 407 -15 279 -15 c 1
 151 -15 46 74 46 201 c 1xf2
 46 295 120 355 161 384 c 1
 130 412 78 448 78 541 c 1
 78 648 158 731 280 731 c 1
EndSplineSet
Fore
307.556 92 m 0
 381.723 92 441.875 140.551 456.425 209 c 1
 471.146 278.257 422.144 330 358.044 330 c 1
 278.144 330 222.977 277.461 208.425 209 c 0
 193.758 140 233.556 92 307.556 92 c 0
306.043 537 m 1
 293.702 478.943 325.054 450.5 383.656 450.5 c 1
 438.593 450.5 485.469 477.374 498.143 537 c 1
 508.374 585.132 485.848 625 419.848 625 c 1
 353.039 625 315.954 583.628 306.043 537 c 1
442.592 732 m 1
 577.592 732 652.85 649 629.043 537 c 1
 610.763 451 538.148 410 506.668 391.61 c 1
 555.347 378 606.667 300 587.324 209 c 1
 553.753 60 425.006 -16 282.599 -16 c 1
 124.935 -16 49.1543 76 77.4248 209 c 1
 96.25 297.57 184.771 380 235.94 391.429 c 1
 210.723 408 157.713 455 175.143 537 c 1
 199.8 653 305.592 732 442.592 732 c 1
EndSplineSet
EndChar
StartChar: nine
Encoding: 25 57 25
Width: 575
Flags: HW
HStem: 275 118<289 299> 614 115<289 307>
VStem: 66 131<506 515> 393 131<497 515>
Back
138 514 m 1
 138 435 200 367 287 367 c 1
 374 367 431 439 431 512 c 1
 431 595 364 655 286 655 c 1
 196 655 138 583 138 514 c 1
354 309 m 1
 332 300 316 294 287 294 c 0
 166 294 65 390 65 514 c 1
 65 615 152 728 288 728 c 1
 418 728 504 619 504 513 c 1
 504 413 445 330 422 288 c 1
 249 -27 l 9
 187 10 l 17
 354 309 l 1
EndSplineSet
Fore
304.554 506 m 1
 291.646 445.272 318.058 393 380.535 393 c 1
 442.764 393 488.25 448.117 500.129 504 c 1
 513.699 567.846 482.455 614 426.51 614 c 1
 362.051 614 315.787 558.851 304.554 506 c 1
399.153 283 m 1
 397.269 281.211 354.438 275 352.453 275 c 0
 213.036 275 145.16 372.418 173.554 506 c 1
 196.928 615.967 311.075 729 451.954 729 c 1
 588.573 729 655.863 620.367 631.341 505 c 1
 601.583 365 533.854 291 515.622 264.202 c 1
 312.024 -14 l 9
 218.856 46.8154 l 17
 399.153 283 l 1
EndSplineSet
EndChar
StartChar: less
Encoding: 28 60 28
Width: 422
Flags: HW
Back
284 11 m 1
 36 310 l 1
 284 603 l 1
 381 603 l 1
 132 309 l 1
 381 11 l 1
 284 11 l 1
EndSplineSet
Fore
228.338 11 m 1
 88.1133 310.659 l 1
 354.208 603.274 l 1
 516.384 604 l 1
 249.229 309.143 l 1
 389.903 11.7852 l 1
 228.338 11 l 1
EndSplineSet
EndChar
StartChar: equal
Encoding: 29 61 29
Width: 443
Flags: HW
Back
27 244 m 1
 418 244 l 1
 418 175 l 1
 27 175 l 1
 27 244 l 1
27 423 m 1
 418 423 l 1
 418 354 l 1
 27 354 l 1
 27 423 l 1
EndSplineSet
Fore
83.9648 268 m 1
 474.965 268 l 1
 450.096 151 l 1
 59.0957 151 l 1
 83.9648 268 l 1
122.013 447 m 1
 513.013 447 l 1
 488.144 330 l 1
 97.1436 330 l 1
 122.013 447 l 1
EndSplineSet
EndChar
StartChar: greater
Encoding: 30 62 30
Width: 422
Flags: HW
Back
137 10 m 1
 40 10 l 1
 288 309 l 1
 40 603 l 1
 137 603 l 1
 384 310 l 1
 137 10 l 1
EndSplineSet
Fore
194.126 10 m 1
 29.2832 10.6748 l 1
 298.456 308.816 l 1
 155.597 605 l 1
 320.594 603.241 l 1
 459.986 310.79 l 1
 194.126 10 l 1
EndSplineSet
EndChar
StartChar: question
Encoding: 31 63 31
Width: 505
Flags: HW
HStem: 612 119<242 264>
VStem: 343 137<534 548>
Back
129.27 533.76 m 0
 129.27 585.552 182.513 629.67 248.115 629.67 c 4
 313.718 629.67 366.96 585.552 366.96 533.76 c 0
 366.96 481.969 313.718 439.935 248.115 439.935 c 0
 182.513 439.935 129.27 481.969 129.27 533.76 c 0
25.0195 533.76 m 0
 25.0195 641.946 124.032 729.75 246.03 729.75 c 0
 368.027 729.75 467.04 641.946 467.04 533.76 c 0
 467.04 425.573 368.027 337.77 246.03 337.77 c 0
 124.032 337.77 25.0195 425.573 25.0195 533.76 c 0
EndSplineSet
Fore
367.052 259 m 1xe0
 353.448 195 l 1
 222.448 195 l 1
 242.642 290 l 0
 267.723 408 432.062 419 456.505 534 c 1
 468.833 592 422.085 612 376.085 612 c 1
 323.085 612 279.582 572 264.954 522 c 1
 138.206 542 l 1
 172.736 648 271.379 731 399.379 731 c 1
 519.379 731 621.351 665 593.931 536 c 1
 556.458 355 386.395 350 367.052 259 c 1xe0
EndSplineSet
Refer: 14 46 N 1 0 0 1 148 0 2
EndChar
StartChar: at
Encoding: 32 64 32
Width: 825
Flags: HW
Back
569 104 m 1xbf80
 607 54 l 17
 545 9 470 -17 388 -17 c 0
 181 -17 15 150 15 357 c 0
 15 563 181 730 388 730 c 0
 594 730 761 563 761 357 c 0
 761 271 689 204 622 204 c 0xbf80
 586 204 543 225 517 253 c 1
 488 214 440 190 388 190 c 0xdf80
 296 190 221 265 221 357 c 0
 221 448 296 523 388 523 c 0
 480 523 546 444 546 357 c 0
 546 315 579 267 619 267 c 0
 660 267 698 306 698 357 c 0
 698 523 563 668 388 668 c 0
 213 668 77 523 77 355 c 0
 77 188 213 45 388 45 c 0
 450 45 522 71 569 104 c 1xbf80
284 357 m 0
 284 296 332 252 388 252 c 0xdf80
 448 252 485 300 485 357 c 0
 485 411 438 462 388 462 c 0
 334 462 284 415 284 357 c 0
EndSplineSet
Fore
600.995 127 m 1xb8
 640.673 55.1768 l 17
 567.401 10.0645 498.599 -16 400.599 -16 c 0
 184.72 -16 46.1777 146.679 90.8828 357 c 0
 135.491 566.866 343.287 730 559.166 730 c 0
 774.002 730 908.823 573.134 865.858 371 c 0
 843.277 264.765 751.397 182 676.686 182 c 0xb8
 643.003 182 606.872 201.286 591.695 244.334 c 1
 549.553 189.651 494.647 169 439.922 169 c 0xd8
 331.396 169 260.868 253.431 282.883 357 c 0
 303.507 454.03 408.979 534 517.505 534 c 0
 626.216 534 687.037 453.23 668.13 364.28 c 0
 660.663 329.15 672.606 289 697.429 289 c 0
 723.378 289 754.981 324.533 764.858 371 c 0
 796.853 521.521 700.506 646 541.312 646 c 0
 381.505 646 222.554 515.412 188.67 356 c 0
 154.548 195.465 258.009 65 417.816 65 c 0
 485.816 65 560.618 97 600.995 127 c 1xb8
389.883 357 m 0
 378.893 305.295 412.503 268 460.965 268 c 0xd8
 512.305 268 553.293 311.886 564.37 364 c 0
 574.209 410.286 540.734 442 497.95 442 c 0
 451.219 442 401.271 410.581 389.883 357 c 0
EndSplineSet
EndChar
StartChar: m
Encoding: 77 109 33
Width: 775
Flags: HW
Back
412 0 m 1
 338 0 l 0
 338 302 l 0
 338 386 319 468 265 468 c 1
 203 468 132 406 132 322 c 0
 132 0 l 9
 58 0 l 1
 58 524 l 1
 132 524 l 1
 132 450 l 17
 160 486 189 535 260 535 c 0
 333.672 535 375.608 490.526 395.162 434.777 c 1
 424 480 465.178 535 540 535 c 0
 665 535 692 430 692 304 c 0
 692 0 l 1
 618 0 l 0
 618 302 l 0
 618 386 599 468 545 468 c 1
 483 468 412 406 412 322 c 0
 412 0 l 1
EndSplineSet
Fore
451 0 m 1
 325 0 l 0
 383.878 277 l 0
 400.228 353.916 402.11 424 365.124 424 c 1
 322.703 424 263.092 372.096 246.704 295 c 0
 184 0 l 9
 58 0 l 1
 169.38 524 l 1
 295.38 524 l 1
 278.939 446.655 l 17
 306.452 482 364.355 538 406.355 538 c 0
 486.355 538 515.554 506 530.975 428 c 1
 566.752 474 607.126 538 685.16 538 c 0
 806.209 538 807.911 423 777.304 279 c 0
 718 0 l 1
 592 0 l 0
 650.878 277 l 0
 667.228 353.916 669.11 424 632.124 424 c 1
 589.703 424 530.092 372.096 513.704 295 c 0
 451 0 l 1
EndSplineSet
EndChar
StartChar: n
Encoding: 78 110 34
Width: 533
Flags: HW
HStem: 0 21G<58 184 369 495> 424 114<295 338.705>
VStem: 58 126<0 305 0 524> 369 126<0 297>
Back
132 0 m 9
 58 0 l 1
 58 524 l 1
 132 524 l 1
 132 450 l 17
 166 488 204 535 275 535 c 0
 400 535 442 430 442 304 c 0
 442 0 l 1
 368 0 l 0
 368 302 l 0
 368 386 334 468 280 468 c 1
 218 468 132 406 132 322 c 0
 132 0 l 9
EndSplineSet
Fore
184 0 m 9
 58 0 l 1
 169.38 524 l 1
 295.38 524 l 1
 279.496 449.273 l 17
 320.336 490.729 380.355 538 453.061 538 c 0
 555.077 538 587.25 434 554.304 279 c 0
 495 0 l 1
 369 0 l 0
 427.878 277 l 0
 444.228 353.916 432.124 424 385.124 424 c 1
 347.002 424 263.092 372.096 246.704 295 c 0
 184 0 l 9
EndSplineSet
EndChar
StartChar: o
Encoding: 79 111 35
Width: 540
Flags: HW
HStem: -14 112<276 286> 425 112<276 286>
VStem: 45 127<262 275> 379 127<262 275>
Back
45 262 m 0
 45 416 118 534 248 534 c 0
 378 534 451 416 451 262 c 0
 451 108 378 -14 248 -14 c 1
 118 -14 45 108 45 262 c 0
120 262 m 0
 120 166 160 52 248 52 c 0
 342 52 376 166 376 262 c 0
 376 358 336 468 248 468 c 0
 160 468 120 358 120 262 c 0
EndSplineSet
Fore
100.689 262 m 0
 134.507 421.096 255.02 537 390.143 537 c 0
 524.626 537 595.507 421.096 561.689 262 c 0
 528.007 103.536 407.507 -14 273.024 -14 c 1
 137.901 -14 67.0068 103.536 100.689 262 c 0
227.689 262 m 0
 210.977 183.371 239.08 98 296.83 98 c 0
 357.783 98 417.977 183.371 434.689 262 c 0
 451.43 340.757 423.398 425 366.337 425 c 0
 308.587 425 244.43 340.757 227.689 262 c 0
EndSplineSet
KernsSLIFO: 44 -26 0 0
EndChar
StartChar: p
Encoding: 80 112 36
Width: 553
Flags: HW
Back
132 -208 m 17
 58 -208 l 1
 58 524 l 1
 132 524 l 1
 132 439 l 17
 160 486 198 533 269 533 c 0
 392 533 451 402 451 264 c 0
 451 126 408 -14 250 -14 c 1
 170 -14 132 68 132 68 c 0
 132 68 132 -100.36 132 -208 c 17
376 262 m 0
 376 376 336 467 274 467 c 1
 206 467 130 388 130 262 c 1
 130 120 200 52 255 52 c 0
 328 52 376 128 376 262 c 0
EndSplineSet
Fore
147.237 -220 m 17
 11.2373 -220 l 1
 169.38 524 l 1
 305.38 524 l 1
 294.327 472 l 17
 333.129 504 379.148 535 423.718 535 c 0
 554.828 535 608.652 398.26 577.139 250 c 0
 548.25 114.085 456.973 -13.7998 294.956 -13.7998 c 1
 244.861 -13.7998 205.479 54 205.479 54 c 0
 205.479 54 169.951 -113.14 147.237 -220 c 17
452.265 260 m 0
 472.005 352.868 441.813 423 402.911 423 c 1
 358.994 423 271.196 382 245.689 262 c 1
 216.727 125.738 286.19 98 321.83 98 c 0
 367.682 98 428.937 150.248 452.265 260 c 0
EndSplineSet
EndChar
StartChar: q
Encoding: 81 113 37
Width: 553
Flags: HW
Back
114 262 m 0
 114 128 164 52 237 52 c 0
 292 52 362 120 362 262 c 1
 362 388 286 467 218 467 c 1
 156 467 114 376 114 262 c 0
434 -97 m 2
 434 -136 448 -153 492 -153 c 1
 492 -219 l 1
 409 -219 360 -186 360 -100 c 0
 360 -97.2822 360 65.2823 360 68 c 1
 360 68 322 -14 242 -14 c 1
 84 -14 41 126 41 264 c 0
 41 402 100 533 223 533 c 0
 294 533 330 486 360 439 c 9
 360 524 l 1
 434 524 l 1
 434 -97 l 2
EndSplineSet
Fore
351.334 -69 m 0
 351.396 -68.707 376.755 50.5996 377.479 54 c 1
 377.479 54 309.271 -13.7998 259.178 -13.7998 c 1
 97.1611 -13.7998 50.25 114.085 79.1387 250 c 0
 110.652 398.26 233.033 537 364.143 537 c 0
 408.712 537 443.129 504 466.327 472 c 9
 477.38 524 l 1
 603.38 524 l 1
 492 0 l 1
 477.759 -67 l 0
 472.02 -94 478.106 -103 522.488 -103 c 1
 498.45 -219 l 1
 382.753 -219 328.753 -175.235 351.334 -69 c 0
208.265 260 m 0
 184.937 150.248 233.979 98 279.83 98 c 0
 315.471 98 396.727 125.738 425.689 262 c 1
 451.196 382 381.254 425 337.337 425 c 1
 298.435 425 228.005 352.868 208.265 260 c 0
EndSplineSet
EndChar
StartChar: r
Encoding: 82 114 38
Width: 409
Flags: HW
Back
312 443 m 1
 301 450 266 463 249 463 c 1
 192 463 132 384 132 331 c 2
 132 0 l 17
 58 0 l 1
 58 524 l 1
 132 524 l 1
 132 446 l 17
 158 492 205 530 244 530 c 0
 274 530 320 518 344 503 c 1
 312 443 l 1
EndSplineSet
Fore
441.578 394.144 m 1
 431.941 400.394 398.07 424 381.124 424 c 1
 324.124 424 251.632 318.182 241.391 270 c 2
 184 0 l 17
 58 0 l 1
 169.38 524 l 1
 295.38 524 l 1
 277.132 438.149 l 17
 316.152 490 361.355 538 400.355 538 c 0
 434.014 538 488.285 517.589 509.788 492.075 c 1
 441.578 394.144 l 1
EndSplineSet
KernsSLIFO: 124 -20 0 0
EndChar
StartChar: s
Encoding: 83 115 39
Width: 459
Flags: HW
Back
224 240 m 0
 146.432 265.359 54 300 54 390 c 0
 54 480 126 536 224 536 c 0
 326 536 386 478 397 425 c 1
 328 411 l 0
 317 445 286 470 225 470 c 0
 154 470 129 438 129 393 c 0
 129 338 192 323 225 311 c 0
 298.725 284.191 405 244 405 145 c 0
 405 42 330 -14 226 -14 c 0
 122 -14 62 34 42 106 c 1
 111 119 l 1
 122 76 160 52 224 52 c 0
 292 52 330 84 330 145 c 0
 330 196 276 223 224 240 c 0
EndSplineSet
Fore
265.125 217 m 0
 195.264 242.528 113.813 281.4 133.071 372 c 0
 156.394 481.726 251.107 537 353.143 537 c 0
 453.314 537 499.35 462.242 495.05 391.188 c 1
 373.646 370 l 0
 375.197 403.424 360.337 425 330.337 425 c 0
 294.337 425 273.573 412 265.496 374 c 0
 260.607 351 291.719 328 313.558 321.093 c 0
 380.04 300.066 478.173 254.863 457.371 157 c 0
 431.348 34.5664 334.768 -14 229.024 -14 c 0
 121.633 -14 68.7969 47.7256 68.1436 141.814 c 1
 185.266 160.459 l 1
 184.381 119.732 206.61 98 251.83 98 c 0
 287.756 98 320.807 112 330.159 156 c 0
 335.864 182.842 296.581 208.053 265.125 217 c 0
EndSplineSet
EndChar
StartChar: t
Encoding: 84 116 40
Width: 345
Flags: HW
Back
124 458 m 0
 55 458 l 1
 55 524 l 1
 124 524 l 0
 124 646 l 1
 198 646 l 0
 198 524 l 0
 294 524 l 1
 294 458 l 1
 198 458 l 0
 198 105 l 0
 198 54 233 48 255 48 c 1
 289 48 l 1
 289 -14 l 1
 255 -14 l 1
 155 -14 124 24 124 103 c 1
 124 458 l 0
EndSplineSet
Fore
191.573 412 m 0
 122.573 412 l 1
 146.38 524 l 1
 215.38 524 l 0
 241.312 646 l 1
 367.111 646 l 0
 341.38 524 l 0
 416.68 524 l 1
 392.873 412 l 1
 317.573 412 l 0
 259.333 138 l 0
 250.584 96.8418 281.556 92 303.556 92 c 1
 322.556 92 l 1
 300.024 -14 l 1
 281.024 -14 l 1
 141.329 -14 111.38 34.7178 132.907 136 c 1
 191.573 412 l 0
EndSplineSet
EndChar
StartChar: u
Encoding: 85 117 41
Width: 543
Flags: HW
HStem: -13 114<260 267> 504 20G<53 179 364 490>
VStem: 53 126<226 524> 364 126<0 524>
Back
363 524 m 9
 437 524 l 1
 437 0 l 1
 363 0 l 1
 363 68 l 17
 344 39 311 -11 240 -11 c 0
 115 -11 53 94 53 220 c 0
 53 524 l 1
 127 524 l 0
 127 222 l 0
 127 138 181 56 235 56 c 1
 297 56 363 118 363 202 c 0
 363 524 l 9
EndSplineSet
Fore
475.38 524 m 9
 601.38 524 l 1
 490 0 l 1
 364 0 l 1
 379.281 71.8945 l 17
 364.266 53 305.236 -13 261.236 -13 c 0
 107.233 -13 74.4678 101 105.076 245 c 0
 164.38 524 l 1
 290.38 524 l 0
 231.502 247 l 0
 215.152 170.084 243.468 101 286.468 101 c 1
 339.468 101 398.414 161.904 414.801 239 c 0
 475.38 524 l 9
EndSplineSet
EndChar
StartChar: v
Encoding: 86 118 42
Width: 518
Flags: HW
Back
213 0 m 1
 35 524 l 1
 113 524 l 1
 250 95 l 1
 390 524 l 1
 467 524 l 1
 287 0 l 1
 213 0 l 1
EndSplineSet
Fore
200.76 0 m 1
 146.38 524 l 1
 279.003 524 l 1
 302.488 198.802 l 1
 465.675 524 l 1
 596.38 524 l 1
 319.284 0 l 1
 200.76 0 l 1
EndSplineSet
EndChar
StartChar: w
Encoding: 87 119 43
Width: 708
Flags: HW
Back
336 405 m 1
 225 0 l 1
 168 0 l 1
 28 524 l 1
 101 524 l 1
 197 138 l 1
 301 520 l 1
 371 520 l 17
 475 138 l 1
 571 524 l 17
 644 524 l 1
 504 0 l 1
 444 0 l 1
 336 405 l 1
EndSplineSet
Fore
418.914 304.685 m 1
 284.634 0 l 1
 181.756 0 l 1
 139.38 524 l 1
 263.748 524 l 1
 285.87 241.384 l 1
 409.823 525.759 l 1
 522.938 526.034 l 17
 526.257 242.492 l 1
 669.012 524 l 17
 792.38 524 l 1
 527.244 0 l 1
 420.366 0 l 1
 418.914 304.685 l 1
EndSplineSet
EndChar
StartChar: x
Encoding: 88 120 44
Width: 515
Flags: HW
Back
420 0 m 1
 337 0 l 9
 219 215 l 1
 107 0 l 1
 21 0 l 9
 174 263 l 1
 22 524 l 9
 105 524 l 1
 219 312 l 0
 333 524 l 1
 416 524 l 1
 264 265 l 0
 420 0 l 1
EndSplineSet
Fore
498.522 0 m 1
 348.414 0 l 9
 290.811 163.785 l 1
 163.251 0 l 1
 13.3174 0 l 9
 235.38 261.792 l 1
 133.38 524 l 9
 274.821 524 l 1
 333.275 362.902 l 0
 459.18 524 l 1
 612.38 524 l 1
 388.408 265.938 l 0
 498.522 0 l 1
EndSplineSet
EndChar
StartChar: y
Encoding: 89 121 45
Width: 513
Flags: HW
HStem: -227 113<263 278> -14 114<260 274> 504 20G<53 179 364 490>
VStem: 53 126<231 524> 364 126<-31 46 220 524>
Back
138.367 -89.7646 m 0
 158.949 -127.923 200.183 -153 245 -153 c 0
 306 -153 363 -110 363 -16 c 0
 363 71 l 17
 346 41 311 -8 240 -8 c 0
 115 -8 53 97 53 223 c 0
 53 524 l 1
 127 524 l 0
 127 225 l 0
 127 141 181 59 235 59 c 1
 297 59 363 121 363 205 c 0
 363 524 l 9
 437 524 l 1
 437 208 l 1
 437 -9 l 2
 437 -142 348 -219 249 -219 c 1
 160.388 -219 106.221 -171.815 78.3965 -120.877 c 1
 138.367 -89.7646 l 0
EndSplineSet
Fore
156.506 -54.5752 m 0
 159.093 -90.4346 224.537 -114 246.769 -114 c 0
 299.769 -114 346.57 -82 357.836 -29 c 0
 357.836 -29 368.422 20.8047 375.19 52.6475 c 17
 353.951 28 308.895 -14 265.024 -14 c 0
 134.676 -14 73.8301 98 106.139 250 c 0
 164.38 524 l 1
 290.38 524 l 0
 232.564 252 l 0
 216.215 175.084 237.256 100 286.256 100 c 1
 324.521 100 397.261 156.479 413.525 233 c 0
 475.38 524 l 9
 601.38 524 l 1
 540.163 236 l 1
 487.024 -14 l 2
 464.493 -120 328.963 -227 225.75 -227 c 1
 139.75 -227 57.8652 -170 44.9736 -109.146 c 1
 156.506 -54.5752 l 0
EndSplineSet
EndChar
StartChar: z
Encoding: 90 122 46
Width: 491
Flags: HW
Back
162 69 m 1
 423 69 l 1
 423 0 l 1
 39 0 l 1
 305 455 l 2
 49 455 l 1
 49 524 l 1
 428 524 l 1
 162 69 l 1
EndSplineSet
Fore
260.803 117 m 1
 458.869 117 l 1
 434 0 l 1
 32.125 0 l 1
 331.714 407 l 2
 142.511 407 l 1
 167.38 524 l 1
 560.977 524 l 1
 260.803 117 l 1
EndSplineSet
EndChar
StartChar: Oslash
Encoding: 151 216 53
Width: 1210
Flags: HW
Back
260.642 -14 m 5
 120.668 -14 l 5
 440.305 739.991 l 4
 571 740 l 5
 260.642 -14 l 5
511 368 m 0
 511 478.932 474.629 610 349 610 c 0
 224.324 610 187 478.932 187 368 c 1
 187 247.48 225.118 104 349 104 c 1
 473.834 104 511 247.48 511 368 c 0
49 368 m 1
 49 524.582 129 727 349 727 c 1
 570.014 727 649 524.582 649 368 c 1
 649 201.431 568.962 -14 349 -14 c 1
 130.053 -14 49 201.431 49 368 c 1
EndSplineSet
Fore
265.362 -3 m 1
 257.024 -14 l 1
 118.024 -14 l 1
 168.028 66 l 1
 112.907 136 105.965 268 124.458 355 c 1
 162.718 535 286.528 727 506.528 727 c 1
 533.817 727 563.417 723.671 582.19 716 c 1
 588.954 729 l 0
 721.954 729 l 1
 676.862 658 l 1
 744.708 582 747.839 465 724.458 355 c 1
 697.038 226 578.024 -14 346.024 -14 c 1
 318.024 -14 288.874 -10 265.362 -3 c 1
334.169 109 m 1
 346.743 107 349.838 104 370.105 104 c 1
 500.105 104 566.689 262 586.458 355 c 0
 599.573 416.705 604.264 467 591.742 521 c 1
 334.169 109 l 1
259.212 208 m 1
 511.81 606 l 1
 502.021 607 499.659 610 481.659 610 c 1
 347.659 610 285.689 469 261.458 355 c 1
 254.656 323 249.502 247 259.212 208 c 1
EndSplineSet
EndChar
StartChar: Thorn
Encoding: 157 222 57
Width: 676
Flags: HW
Back
142.8 232.96 m 1
 274.88 232.96 419.6 258.96 419.6 366.08 c 1
 419.6 480.48 249.92 492.96 142.8 492.96 c 1
 142.8 232.96 l 1
66 711 m 0
 142.8 711 l 1
 142.8 561.6 l 1
 325.84 561.6 496.4 521.04 496.4 366.08 c 0
 496.4 198.64 322.72 164.32 142.8 164.32 c 1
 142.8 0 l 1
 66 0 l 1
 66 711 l 0
EndSplineSet
Fore
251.121 256.688 m 1
 344.855 256.688 452.099 278.038 470.796 366 c 1
 490.535 458.869 372.27 469 296.249 469 c 1
 251.121 256.688 l 1
217.128 711 m 0
 347.688 711 l 1
 321.052 585.688 l 1
 490.323 585.688 638.365 540.114 601.355 366 c 0
 561.489 178.443 392.703 140 226.318 140 c 1
 196.56 0 l 1
 66 0 l 1
 217.128 711 l 0
EndSplineSet
EndChar
StartChar: germandbls
Encoding: 158 223 58
Width: 616
Flags: HW
Back
80.1699 562.38 m 1
 123.43 658.17 190.32 722.03 314.95 722.03 c 1
 436.49 722.03 536.34 648.9 532.22 524.27 c 1
 532.22 429.51 434.43 380.07 375.72 364.62 c 1
 431.34 351.23 540.46 293.55 540.46 194.67 c 1
 540.46 58.71 435.46 -14.4199 293.32 -14.4199 c 1
 261.39 -14.4199 235.64 -5.15039 202.68 11.3301 c 9
 246.97 71.0703 l 17
 263.45 64.8896 278.9 53.5596 293.32 53.5596 c 1
 389.11 53.5596 468.48 95.79 468.48 194.67 c 1
 468.48 267.8 360.27 331.66 264.48 331.66 c 1
 246.97 331.66 l 2
 240.79 331.66 234.61 331.66 226.37 328.57 c 1
 226.37 402.73 l 1
 233.58 400.67 238.73 400.67 243.88 400.67 c 2
 264.48 400.67 l 1
 347.91 400.67 459.21 448.05 459.21 524.27 c 1
 459.21 614.91 403.53 655.08 314.95 655.08 c 1
 215.04 655.08 170.69 604.61 149.06 539.72 c 1
 115.07 440.84 121.25 151.41 111.98 0 c 1
 40 0 l 1
 55.4502 176.13 43.0898 485.13 80.1699 562.38 c 1
EndSplineSet
Fore
191.414 592.225 m 1
 256.979 684.43 341.12 745.9 473.546 745.9 c 1
 609.535 745.9 683.814 663.843 649.479 524 c 1
 629.496 429.985 576.871 389.933 535.122 374.605 c 1
 569.37 361.163 627.947 294.261 606.849 195 c 1
 574.645 43.4922 455.692 -14 299.024 -14 c 1
 267.207 -14 231.222 -20.2422 205.088 11.3301 c 9
 277.381 110 l 17
 289.295 103.668 299.259 92.0605 310.861 92.0605 c 1
 392.892 92.0605 466.963 112.735 484.448 195 c 1
 497.271 255.323 415.432 317 331.381 317 c 1
 314.381 317 l 2
 319.159 317 315.221 318 326.057 339 c 1
 348.873 412 l 1
 411.573 412 509.434 448.979 525.38 524 c 0
 541.286 598.835 522.405 632 449.336 632 c 1
 363.813 632 316.458 587.812 285.867 531 c 1
 232.302 433.718 189.755 148.964 149.122 0 c 1
 40 0 l 1
 89.2451 185.477 150.554 510.875 191.414 592.225 c 1
EndSplineSet
EndChar
StartChar: ae
Encoding: 165 230 63
Width: 1000
Flags: H
Back
208 294 m 0xb8
 134 294 110 236 110 173 c 0
 110 110 134 52 208 52 c 0
 270 52 306 108 306 173 c 1
 306 238 270 294 208 294 c 0xb8
347.172 444.129 m 1
 381.085 499.773 413.985 534 484 534 c 0
 614 534 667 416 667 262 c 0
 667 251.234 665.469 240.156 665.469 229 c 1
 377.297 229 l 1xd8
 377.297 182 389 52 484 52 c 0
 530.016 52 542.375 79.3281 563.422 118.484 c 0
 628.344 91.6094 l 0
 594.984 27.0625 559.422 -14 484 -14 c 0
 405.844 -14 380.021 27.0371 346 80 c 1
 320 34 302 -14 208 -14 c 0
 98 -14 36 68 36 173 c 0
 36 278 108 360 208 360 c 0
 270.223 360 289 337 308 309 c 1
 308.915 317.082 305.915 330.206 307.264 337.988 c 1
 307.264 409.284 281.354 466 210 466 c 0
 164 466 142 450 120 428 c 9
 105.18 447.5 82 478 82 478 c 0
 116 506 140 532 210 532 c 0
 273.279 532 313.223 501.687 347.172 444.129 c 1
377.364 295 m 1
 591.344 295 l 1
 582.672 381.516 562.031 468 484 468 c 0
 404 468 379 369 377.364 295 c 1
EndSplineSet
EndChar
StartChar: igrave
Encoding: 171 236 68
Width: 269
Flags: HW
HStem: 0 21G<68 199> 504 20G<179.38 310.38> 559.5 212.044<229.38 242.57>
VStem: 68 242.38<0 524> 140.991 171.44<619.411 699.592>
Fore
179.38 524 m 1xf0
 310.38 524 l 1
 199 0 l 1
 68 0 l 1
 179.38 524 l 1xf0
EndSplineSet
Refer: 119 96 N 1 0 0 1 -47.5121 7 2
EndChar
StartChar: iacute
Encoding: 172 237 69
Width: 266
Flags: HW
HStem: 0 21G<68 199> 504 20G<179.38 310.38> 558.5 212.044<273.258 350.211>
VStem: 68 242.38<0 524> 215.676 205.526<618.411 698.592>
Fore
179.38 524 m 1xf0
 310.38 524 l 1
 199 0 l 1
 68 0 l 1
 179.38 524 l 1xf0
EndSplineSet
Refer: 153 180 N 1 0 0 1 33.2753 6 2
EndChar
StartChar: icircumflex
Encoding: 173 238 70
Width: 267
Flags: HW
HStem: 0 21G<68 199> 504 20G<179.38 310.38>
VStem: 56.8353 392.114<559.615 561.086> 68 242.38<0 524>
Fore
179.38 524 m 1xd0
 310.38 524 l 1
 199 0 l 1
 68 0 l 1
 179.38 524 l 1xd0
EndSplineSet
Refer: 117 94 N 1 0 0 1 -122.213 -1 2
EndChar
StartChar: idieresis
Encoding: 174 239 71
Width: 268
Flags: HW
HStem: 0 21G<68 199> 504 20G<179.38 310.38> 566 21<118.226 162.387 348.226 392.387>
VStem: 68 242.38<0 524> 77.3114 160<627.652 664.348 646 646> 307.311 160<627.652 664.348 646 646>
Fore
179.38 524 m 1xf0
 310.38 524 l 1
 199 0 l 1
 68 0 l 1
 179.38 524 l 1xf0
EndSplineSet
Refer: 144 168 N 1 0 0 1 -40.9864 240 2
EndChar
StartChar: eth
Encoding: 175 240 72
Width: 519
Flags: HW
Back
109 222 m 0
 109 109 186 52 235 52 c 0
 310 52 374 136 374 222 c 1
 374 316 290 386 216 386 c 1
 156 386 109 295 109 222 c 0
329 630 m 1
 371 582 436 480 442 391 c 1
 445.345 341.819 449.318 306.46 448 245 c 1
 448 94 355.041 -14 240 -14 c 0
 92 -14 35 99 35 224 c 0
 35 350 116 452 221 452 c 0
 304 452 329 413 366 380 c 1
 366 436 320 547 274 588 c 1
 199 518 l 1
 151 567 l 1
 217 630 l 1
 191 639 165 642 139 642 c 0
 120 642 101 640 83 638 c 1
 76 710 l 1
 89 711 103 711 116 711 c 0
 171 711 225 703 276 677 c 1
 352 745 l 1
 399 692 l 1
 329 630 l 1
EndSplineSet
Fore
209.463 228 m 0
 189.683 134.941 231.038 88 263.705 88 c 0
 313.885 88 371.409 157.176 386.463 228 c 1
 402.91 305.378 356.679 353 307.032 353 c 1
 267.22 353 222.235 288.091 209.463 228 c 0
491.534 600 m 1
 519.637 555.921 551.94 457.731 539.921 376 c 1
 536.861 333.959 529.983 299.538 516.502 247 c 1
 482.918 89.0039 362.364 -24 242.898 -24 c 0
 89.123 -24 55.5322 96.5967 83.8877 230 c 0
 112.667 365.395 221.371 465 334.839 465 c 0
 385.211 465 419.397 422.723 434.897 390 c 1
 442.359 425.107 422.829 512 397.206 542 c 1
 348.703 502 l 1
 287.135 577.245 l 1
 333.36 618 l 1
 325.485 628 310.336 632 293.91 630 c 1
 266.336 632 237.43 623.032 216.446 621.7 c 1
 229.041 720 l 1
 250.741 728 297.144 728 316.741 728 c 0
 345.508 728 401.34 712 431.389 684 c 1
 501.052 738.148 l 1
 561.736 648 l 1
 491.534 600 l 1
EndSplineSet
EndChar
StartChar: oslash
Encoding: 183 248 79
Width: 510
Flags: HW
Back
26 -14 m 29
 390 538 l 25
 518 536 l 25
 166 -14 l 25
 26 -14 l 29
45 262 m 0
 45 421.096 140.877 537 276 537 c 0
 410.483 537 506 421.096 506 262 c 0
 506 103.536 410.483 -14 276 -14 c 1
 140.877 -14 45 103.536 45 262 c 0
172 262 m 0
 172 183.371 218.25 98 276 98 c 0
 336.953 98 379 183.371 379 262 c 0
 379 340.757 333.062 425 276 425 c 0
 218.25 425 172 340.757 172 262 c 0
EndSplineSet
Fore
438.893 310 m 1
 266.956 108 l 1
 273.574 101.5 284.83 98 296.83 98 c 0
 355.83 98 417.552 181.371 434.265 260 c 0
 436.662 271.278 441.066 292 438.893 310 c 1
397.211 415 m 1
 391.273 420 383.337 425 372.337 425 c 0
 302.337 425 243.844 338 227.265 260 c 0
 224.877 248.768 221.825 225 223.912 216 c 1
 397.211 415 l 1
23.0244 -14 m 1
 111.492 87 l 1
 92.8574 124 85.8105 192 100.265 260 c 1
 134.273 420 248.143 537 396.143 537 c 0
 422.523 537 465.018 527 483.042 513 c 1
 504.118 537.779 l 1
 632.355 538 l 1
 549.312 439 l 1
 570.173 396 576.144 330 561.265 260 c 0
 527.582 101.536 405.024 -14 275.024 -14 c 1
 245.024 -14 203.512 -7 182.913 9 c 1
 163.032 -14 l 1
 23.0244 -14 l 1
EndSplineSet
EndChar
StartChar: thorn
Encoding: 189 254 83
Width: 534
Flags: HW
Back
132 0 m 17
 58 0 l 1
 58 710 l 1
 132 710 l 1
 132 543 l 17
 164 589 198 627 269 627 c 0
 392 627 451 496 451 358 c 0
 451 220 408 80 250 80 c 1
 170 80 132 152 132 152 c 0
 132 152 132 59.2803 132 0 c 17
377 356 m 0
 377 470 336 561 274 561 c 1
 206 561 130 482 130 356 c 1
 130 214 200 146 255 146 c 0
 328 146 377 222 377 356 c 0
EndSplineSet
Fore
184 0 m 17
 58 0 l 1
 208.915 710 l 1
 334.915 710 l 1
 304.311 566.017 l 17
 326.534 600 382.162 650 429.162 650 c 0
 560.271 650 603.246 509.26 571.733 361 c 0
 539.657 210.094 452.95 57 290.665 57 c 1
 240.685 56.5117 215.594 111 210.782 126 c 1
 210.782 126 194.445 49.1396 184 0 c 17
446.796 366 m 0
 467.127 461.649 430.481 538 391.355 538 c 1
 341.355 538 277.043 456.549 257.905 366.514 c 1
 231.438 242 261.922 169 307.922 169 c 0
 353.996 169 420.076 240.295 446.796 366 c 0
EndSplineSet
EndChar
StartChar: Euro
Encoding: 202 8364 87
Width: 599
Flags: HWO
HStem: 80 112<355 382> 235 81<61 135 253 393> 371 81<264 396> 514 112<355 366>
VStem: 126 125<366 368>
Back
126.902 372 m 1
 64 372 l 1
 64 438 l 1
 138.611 438 l 1
 163.131 521.963 222.27 584 306 584 c 0
 384 584 414 564 460 519 c 9
 413 472 l 2
 385 500 364 518 306 518 c 1
 264.776 518 233.547 482.305 215.084 438 c 1
 347 438 l 1
 347 372 l 1
 197.721 372 l 1
 196.581 362.76 196 353.689 196 345 c 0
 196 334.571 196.562 324.567 197.617 315 c 1
 344 315 l 1
 344 249 l 1
 214.806 249 l 1
 237.63 196.947 276.694 169 306 169 c 0
 348 169 373 177 415 223 c 9
 462 176 l 1
 429 138 399 103 306 103 c 1
 215.584 103 161.322 166.269 138.562 249 c 1
 61 249 l 1
 61 315 l 1
 127.247 315 l 1
 126.413 325.575 126 336.265 126 347 c 0
 126 355.41 126.303 363.753 126.902 372 c 1
EndSplineSet
Fore
206.176 371 m 1
 142.858 371 l 1
 160.288 453 l 1
 233.557 452.2 l 1
 284.106 546.975 384.235 626 488.061 626 c 0
 555.061 626 605.534 600 645.442 529 c 9
 555.626 464 l 17
 538.578 492 513.669 514.414 464.254 514 c 1
 431.532 514 373.728 488 360.909 452 c 1
 492.075 452 l 1
 474.858 371 l 1
 332.858 371 l 1
 330.508 369.289 329.138 367.609 328.796 366 c 0
 328.353 363.914 319.38 317.913 320.483 316 c 1
 460.168 316 l 1
 442.951 235 l 1
 315.259 235 l 1
 320.212 208 373.415 192 395.811 192 c 0
 437.811 192 457.811 192 498.463 228 c 9
 569.646 163 l 1
 523.213 117.712 475.735 80 372.005 80 c 1
 259.686 80 188.309 152 184.951 235 c 1
 110.951 235 l 1
 128.168 316 l 1
 194.853 316 l 1
 194.147 317.983 203.368 363.987 203.796 366 c 0
 204.153 367.682 204.951 369.351 206.176 371 c 1
EndSplineSet
EndChar
StartChar: A
Encoding: 33 65 88
Width: 694
Flags: HW
HStem: 0 21G<10 161.401 507.638 657.666> 185 120<263 447> 691 20G<284.666 409.666>
Back
318 613 m 1
 221 303 l 1
 416 303 l 1
 318 613 l 1
438 247 m 1
 195 247 l 0
 111 0 l 0
 30 0 l 1
 286 711 l 0
 286 711 323.82 711 348 711 c 17
 604 0 l 1
 521 0 l 1
 438 247 l 1
EndSplineSet
Fore
450.037 511.733 m 1
 328.646 305 l 1
 474.984 305 l 1
 450.037 511.733 l 1
486.323 185 m 1
 267.323 185 l 0
 161.401 0 l 0
 10 0 l 1
 435.794 711 l 1
 560.794 711 l 1
 657.666 0 l 1
 507.638 0 l 1
 486.323 185 l 1
EndSplineSet
KernsSLIFO: 90 -39 0 0 43 -46 0 0 42 -80 0 0 109 -104 0 0 107 -48 0 0
EndChar
StartChar: B
Encoding: 34 66 89
Width: 599
Flags: HW
HStem: 0 117<189 315> 322 116<269 289.583> 595 116<58 283>
VStem: 58 131<0 322 0 595> 439 129<217 225>
Back
135 345 m 1xf4
 135 69 l 1
 291 69 l 1
 434 69 453 146 453 210 c 0
 453 275 408 344 291 344 c 1
 278 344 151 345 135 345 c 1xf4
135 643 m 1
 135 413 l 1
 154 413 235 412 251 412 c 1
 409 412 414 492 414 530 c 1xf8
 414 573 399 642 241 642 c 1
 226 642 153 643 135 643 c 1
58 711 m 1
 241 711 l 1
 456 711 492 606 492 530 c 1xf8
 492 450 421 382 368 382 c 1
 488 382 529 265 529 207 c 1xf4
 529 140 508 0 291 0 c 1
 58 0 l 1
 58 711 l 1
EndSplineSet
Fore
257.443 322 m 1
 213.869 117 l 1
 324.869 117 l 1
 432.869 117 476.366 175.794 486.4 223 c 0
 496.607 271.022 458.443 322 368.443 322 c 1
 257.443 322 l 1
315.557 595.4 m 1
 282.015 437.6 l 1
 362.1 438 l 1
 451.1 438 490.152 490 495.892 517 c 1
 501.277 542.339 494.471 595 387.471 595 c 1
 375.867 595 329.481 595.4 315.557 595.4 c 1
209.128 711 m 1
 412.128 711 l 1
 631.128 711 642.834 600 627.433 527.544 c 1
 611.376 452 561.447 402 501.647 384.121 c 1
 596.521 360 626.666 276 614.55 219 c 1
 598.608 144 552 0 300 0 c 1
 58 0 l 1
 209.128 711 l 1
EndSplineSet
EndChar
StartChar: C
Encoding: 35 67 90
Width: 640
Flags: HW
Back
555 108 m 0
 508 36 449 -15 337 -15 c 1
 138 -15 44 173 44 354 c 1
 44 540 133 730 338 730 c 0
 447 730 505 684 549 615 c 9
 485 583 l 2
 456 624 396 661 338 661 c 1
 194 661 125 507 125 354 c 1
 125 202 204 54 337 54 c 1
 407 54 447 77 490 144 c 9
 515.35 129.96 555 108 555 108 c 0
EndSplineSet
Fore
633.894 151.457 m 0
 576.028 66 486.599 -16 350.599 -16 c 1
 118.599 -16 81.1416 174.737 122.221 368 c 1
 161.651 553.505 281.379 731 510.379 731 c 0
 633.379 731 701.438 656 718.93 579.752 c 9
 584.931 536 l 2
 568.788 577 528.51 614 485.51 614 c 1
 352.51 614 287.552 496.58 260.221 368 c 1
 230.497 228.16 253.681 102 375.681 102 c 1
 427.681 102 477.458 148 517.504 200.008 c 9
 562.896 181.073 633.894 151.457 633.894 151.457 c 0
EndSplineSet
EndChar
StartChar: D
Encoding: 36 68 91
Width: 622
Flags: HW
Back
479 355 m 1
 479 525 389 642 263 642 c 1
 133 642 l 1
 133 69 l 1
 263 69 l 1
 389 69 479 186 479 355 c 1
560 355 m 1
 560 156 439 0 263 0 c 1
 56 0 l 1
 56 711 l 1
 263 711 l 1
 442 711 560 555 560 355 c 1
EndSplineSet
Fore
524.008 367 m 1
 551.833 497.906 504.759 594 410.259 594 c 1
 313.259 594 l 1
 211.869 117 l 1
 308.869 117 l 1
 403.369 117 491.854 215.727 524.008 367 c 1
662.008 367 m 1
 617.564 157.91 461.778 0 284 0 c 1
 56 0 l 1
 207.128 711 l 1
 435.128 711 l 1
 615.936 711 702.37 556.888 662.008 367 c 1
EndSplineSet
EndChar
StartChar: E
Encoding: 37 69 92
Width: 616
Flags: HW
HStem: 0 117<187 560> 306 117<187 539> 594 117<56 560>
VStem: 56 131<0 306 0 594>
Back
56 711 m 0
 506 711 l 1
 506 642 l 0
 133 642 l 0
 133 399 l 1
 485 399 l 1
 485 330 l 0
 133 330 l 0
 133 69 l 0
 506 69 l 0
 506 0 l 0
 56 0 l 1
 56 711 l 0
EndSplineSet
Fore
207.128 711 m 0
 711.128 711 l 1
 686.259 594 l 0
 313.259 594 l 0
 276.911 423 l 1
 628.911 423 l 1
 604.042 306 l 0
 252.042 306 l 0
 211.869 117 l 0
 584.869 117 l 0
 560 0 l 0
 56 0 l 1
 207.128 711 l 0
EndSplineSet
KernsSLIFO: 105 20 0 0
EndChar
StartChar: F
Encoding: 38 70 93
Width: 606
Flags: HW
Back
56 711 m 1
 506 711 l 1
 506 642 l 25
 133 642 l 25
 133 399 l 1
 485 399 l 1
 485 330 l 25
 133 330 l 1
 133 0 l 1
 56 0 l 1
 56 711 l 1
EndSplineSet
Fore
207.128 711 m 1
 711.128 711 l 1
 686.259 594 l 25
 313.259 594 l 25
 276.911 423 l 1
 638.911 423 l 1
 614.042 306 l 25
 252.042 306 l 1
 187 0 l 1
 56 0 l 1
 207.128 711 l 1
EndSplineSet
EndChar
StartChar: G
Encoding: 39 71 94
Width: 694
Flags: HW
Back
337 -14 m 0
 123 -14 44 190 44 357 c 1
 44 523 123 730 338 730 c 0
 447 730 506 684 550 615 c 9
 488 582 l 2
 458 623 396 661 338 661 c 1
 192 661 125 490 125 357 c 1
 125 223 192 54 337 54 c 0
 490 54 521 210 521 301 c 1
 333 301 l 1
 333 370 l 1
 601 370 l 1
 601 328 l 1
 601 174 536 -14 337 -14 c 0
EndSplineSet
Fore
345.236 -13 m 0
 123.203 -13 85.1826 193.747 123.071 372 c 1
 158.166 537.11 281.335 731 504.379 731 c 0
 603.764 731 681.729 676.749 702.559 586 c 9
 567.631 544 l 17
 565.283 580 508.51 614 479.51 614 c 1
 365.041 614 284.691 483.125 261.071 372 c 1
 234.751 248.172 256.355 103 369.894 103 c 0
 490.464 103 537.391 208.842 551.878 277 c 1
 403.878 277 l 1
 428.747 394 l 1
 712.747 394 l 1
 697.635 322.9 l 1
 664.432 166.694 557.051 -13 345.236 -13 c 0
EndSplineSet
KernsSLIFO: 107 -33 0 0
EndChar
StartChar: H
Encoding: 40 72 95
Width: 612
Flags: HW
Back
56 711 m 0
 133 711 l 1
 133 398 l 1
 456 398 l 1
 456 711 l 1
 533 711 l 1
 533 0 l 1
 456 0 l 1
 456 329 l 0
 133 329 l 1
 133 0 l 1
 56 0 l 1
 56 711 l 0
EndSplineSet
Fore
207.128 711 m 0
 338.128 711 l 1
 276.699 422 l 1
 513.699 422 l 1
 575.128 711 l 1
 706.128 711 l 1
 555 0 l 1
 424 0 l 1
 488.83 305 l 0
 251.83 305 l 1
 187 0 l 1
 56 0 l 1
 207.128 711 l 0
EndSplineSet
EndChar
StartChar: I
Encoding: 41 73 96
Width: 271
Flags: HW
HStem: 0 21G<70 201> 691 20G<70 201>
VStem: 70 131<0 711>
Back
70 0 m 1
 70 711 l 1
 147 711 l 1
 147 0 l 1
 70 0 l 1
EndSplineSet
Fore
70 0 m 1
 221.128 711 l 1
 352.128 711 l 1
 201 0 l 1
 70 0 l 1
EndSplineSet
EndChar
StartChar: J
Encoding: 42 74 97
Width: 611
Flags: HW
Back
50 261 m 0
 119 261 l 1
 119 165 178 63 271 63 c 1
 365 63 420 163 420 261 c 2
 420 711 l 1
 497 711 l 1
 497 261 l 2
 497 102 405 -10 271 -10 c 1
 138 -10 50 108 50 261 c 0
EndSplineSet
Fore
110.791 286 m 0
 228.091 286 l 1
 209.644 199.212 222.743 107 323.743 107 c 1
 417.743 107 461.96 197.404 480.791 286 c 2
 571.128 711 l 1
 702.128 711 l 1
 611.791 286 l 2
 574.004 108.225 463.404 -17 297.387 -17 c 1
 123.024 -14 74.4297 114.934 110.791 286 c 0
EndSplineSet
EndChar
StartChar: K
Encoding: 43 75 98
Width: 651
Flags: HW
HStem: 0 21G<56 187 465.741 630.101> 691 20G<56 187 452.39 606>
VStem: 56 131<0 268 0 711>
Back
56 711 m 0
 133 711 l 1
 133 365 l 1
 479 711 l 1
 570 711 l 1
 238 368 l 1
 586 0 l 1
 491 0 l 1
 184 321 l 1
 133 269 l 1
 133 0 l 1
 56 0 l 1
 56 711 l 0
EndSplineSet
Fore
207.128 711 m 0
 338.128 711 l 1
 273.429 406.616 l 1
 603.518 711 l 1
 757.128 711 l 1
 398.521 370.355 l 1
 630.101 0 l 1
 465.741 0 l 1
 285.803 287.267 l 1
 238.438 242 l 1
 187 0 l 1
 56 0 l 1
 207.128 711 l 0
EndSplineSet
KernsSLIFO: 102 -53 0 0
EndChar
StartChar: L
Encoding: 44 76 99
Width: 596
Flags: HW
Back
56 711 m 1
 133 711 l 1
 133 69 l 1
 507 69 l 1
 507 0 l 1
 56 0 l 1
 56 711 l 1
EndSplineSet
Fore
207.128 711 m 1
 338.128 711 l 1
 211.869 117 l 1
 585.869 117 l 1
 561 0 l 1
 56 0 l 1
 207.128 711 l 1
EndSplineSet
EndChar
StartChar: M
Encoding: 45 77 100
Width: 756
Flags: HW
Back
32 0 m 1
 32 711 l 2
 137 711 l 1
 361 102 l 2
 586 711 l 1
 687 711 l 1
 687 0 l 1
 612 0 l 25
 612 588 l 1
 403 8 l 0
 316 8 l 1
 107 588 l 0
 107 0 l 1
 32 0 l 1
EndSplineSet
Fore
32 0 m 1
 183.128 711 l 2
 359.036 711 l 1
 422.261 207.055 l 2
 703.973 711 l 1
 879.128 711 l 1
 728 0 l 1
 600 0 l 25
 703.695 487.847 l 1
 444.787 -1 l 0
 312.787 -1 l 1
 262.557 482.491 l 0
 160 0 l 1
 32 0 l 1
EndSplineSet
EndChar
StartChar: N
Encoding: 46 78 101
Width: 656
Flags: HW
HStem: 0 21G<58 189 466.723 596> 691 20G<58 185.078 465 596>
VStem: 58 131<0 475> 465 131<252 711>
Back
58 0 m 1
 58 711 l 2
 133 711 l 1
 494 144 l 25
 494 711 l 1
 571 711 l 1
 571 0 l 0
 500 0 l 1
 135 581 l 0
 135 0 l 1
 58 0 l 1
EndSplineSet
Fore
58 0 m 1
 209.128 711 l 2
 336.206 711 l 1
 518.6 252.168 l 25
 616.128 711 l 1
 747.128 711 l 1
 596 0 l 0
 466.723 0 l 1
 289.969 475.021 l 0
 189 0 l 1
 58 0 l 1
EndSplineSet
EndChar
StartChar: O
Encoding: 47 79 102
Width: 688
Flags: HW
HStem: -14 118<349 354> 610 117<349 354>
VStem: 49 138<368 387> 511 138<368 387>
Back
539 354 m 0
 539 486 492 661 334 661 c 0
 177 661 130 486 130 354 c 1
 130 223 178 54 334 54 c 1
 491 54 539 223 539 354 c 0
49 354 m 1
 49 511 125 730 334 730 c 1
 544 730 620 511 620 354 c 1
 620 198 543 -15 334 -15 c 1
 126 -15 49 198 49 354 c 1
EndSplineSet
Fore
589.221 368 m 0
 612.8 478.932 604.288 610 478.659 610 c 0
 353.983 610 288.8 478.932 265.221 368 c 1
 239.604 247.48 247.224 104 371.105 104 c 1
 495.939 104 563.604 247.48 589.221 368 c 0
127.221 368 m 1
 160.503 524.582 283.528 727 503.528 727 c 1
 724.543 727 760.503 524.582 727.221 368 c 1
 691.815 201.431 565.986 -14 346.024 -14 c 1
 127.077 -14 91.8154 201.431 127.221 368 c 1
EndSplineSet
KernsSLIFO: 88 -48 0 0 107 -55 0 0
EndChar
StartChar: P
Encoding: 48 80 103
Width: 561
Flags: HW
Back
136 378 m 1
 207 378 l 1
 367 378 425 427 425 511 c 1
 425 594 367 642 207 642 c 1
 136 642 l 1
 136 378 l 1
59 711 m 0
 136 711 l 1
 207 711 l 1
 390 711 504 636 504 511 c 0
 504 388 390 308 207 308 c 1
 136 308 l 1
 136 0 l 1
 59 0 l 1
 59 711 l 0
EndSplineSet
Fore
275.447 402 m 1
 324.447 402 l 1
 433.806 402 483.65 450 494.916 503 c 1
 505.824 554.321 474.616 594 365.259 594 c 1
 316.259 594 l 1
 275.447 402 l 1
210.128 711 m 0
 341.128 711 l 1
 390.128 711 l 1
 564.502 711 654.21 622 628.916 503 c 0
 603.622 384 473.527 283 299.153 283 c 1
 250.153 283 l 1
 190 0 l 1
 59 0 l 1
 210.128 711 l 0
EndSplineSet
KernsSLIFO: 88 -67 0 0
EndChar
StartChar: Q
Encoding: 49 81 104
Width: 702
Flags: HW
Back
511 368 m 4
 511 478.932 474.629 626 349 626 c 4
 224.324 626 187 478.932 187 368 c 5
 187 247.48 225.118 92 349 92 c 5
 473.834 92 511 247.48 511 368 c 4
49 368 m 5
 49 524.582 129 743 349 743 c 5
 570.014 743 649 524.582 649 368 c 5
 649 201.431 568.962 -26 349 -26 c 5
 130.053 -26 49 201.431 49 368 c 5
EndSplineSet
Fore
589.221 368 m 1
 616.854 498 592.297 613 481.297 613 c 1
 358.297 613 291.728 488 266.221 368 c 1
 242.755 257.6 243.468 101 369.468 101 c 1
 381.048 101 417.894 103 438.294 119 c 1
 372.622 177 l 1
 464.742 272.957 l 1
 528.425 209 l 1
 550.801 239 579.18 320.759 589.221 368 c 1
126.221 368 m 1
 157.169 513.601 279.166 730 506.166 730 c 1
 717.166 730 761.78 540 725.221 368 c 1
 700.989 254 652.348 171 612.995 127 c 1
 669.069 78.4072 l 1
 576.024 -14 l 1
 522.29 39 l 1
 479.488 7 414.387 -17 342.387 -17 c 1
 138.387 -17 87.9678 188.034 126.221 368 c 1
EndSplineSet
EndChar
StartChar: R
Encoding: 50 82 105
Width: 591
Flags: HW
Back
190 402 m 5
 239 402 l 5
 348.358 402 388 450 388 503 c 5
 388 554.321 348.358 594 239 594 c 5
 190 594 l 5
 190 402 l 5
59 711 m 4
 190 711 l 5
 239 711 l 5
 413.374 711 522 622 522 503 c 4
 522 384 413.374 283 239 283 c 5
 190 283 l 5
 190 0 l 5
 59 0 l 5
 59 711 l 4
EndSplineSet
Fore
275.447 402 m 1
 323.447 402 l 1
 414.447 402 479.462 435 493.916 503 c 1
 507.095 565 462.259 594 364.259 594 c 1
 316.259 594 l 1
 275.447 402 l 1
419.138 0 m 1
 326.663 283.867 l 1
 311.941 282 263.9 283 250.153 283 c 1
 190 0 l 1
 59 0 l 1
 210.128 711 l 0
 341.128 711 l 1
 389.128 711 l 1
 536.915 710 659.099 645 627.428 496 c 0
 614.25 434 544.883 357 447.893 310 c 1
 568.129 0 l 1
 419.138 0 l 1
EndSplineSet
EndChar
StartChar: S
Encoding: 51 83 106
Width: 587
Flags: HW
Back
43 142 m 5
 107 181 l 5
 151 113 198 54 293 54 c 5
 382 54 451 117 451 194 c 5
 451 268 379 317 260 348 c 4
 173 371 56 414 56 535 c 5
 56 658 167 730 281 730 c 5
 400 730 456 678 502 610 c 5
 443 571 l 5
 414 621 357 661 279 661 c 5
 204 661 135 619 135 535 c 5
 135 446 249 424 314 402 c 4
 413 369 530 325 530 194 c 5
 530 72 417 -15 293 -15 c 5
 186 -15 108 40 43 142 c 5
EndSplineSet
Fore
80.7764 177.723 m 1
 210.325 218.2 l 1
 228.458 148 248.105 104 325.105 104 c 1
 400.105 104 447.033 146 458.937 202 c 1
 470.784 257.74 425.67 302.649 340.293 326 c 0
 253.7 349.984 142.261 405.824 169.08 532 c 1
 197.41 665.282 328.504 728.3 449.384 728.3 c 1
 561.449 728.3 627.923 680.016 652.54 592.029 c 1
 516.041 553.993 l 1
 503.214 591.219 478.654 611 422.872 611 c 1
 369.226 611 316.4 594.667 303.08 532 c 1
 289.537 468.287 372.332 441.538 419.434 425.788 c 0
 513.48 391.553 621.824 337.905 592.937 202 c 1
 564.879 70 437.024 -14 300.024 -14 c 1
 165.024 -14 102.753 60 80.7764 177.723 c 1
EndSplineSet
EndChar
StartChar: T
Encoding: 52 84 107
Width: 661
Flags: HW
Back
38 711 m 0
 571 711 l 1
 571 642 l 0
 348 642 l 1
 348 0 l 1
 271 0 l 1
 271 642 l 1
 38 642 l 1
 38 711 l 0
EndSplineSet
Fore
189.128 711 m 0
 776.128 711 l 1
 751.259 594 l 0
 528.259 594 l 1
 402 0 l 1
 271 0 l 1
 397.259 594 l 1
 164.259 594 l 1
 189.128 711 l 0
EndSplineSet
KernsSLIFO: 41 -66 0 0 88 -54 0 0
EndChar
StartChar: U
Encoding: 53 85 108
Width: 658
Flags: HW
HStem: -14 118<321 327> 691 20G<54 188 454 588>
VStem: 54 134<339 711> 454 134<339 711>
Back
485 711 m 1
 564 711 l 1
 564 323 l 1
 564 117 469 -15 309 -15 c 0
 149 -15 54 117 54 323 c 1
 54 711 l 1
 133 711 l 1
 133 323 l 1
 133 142 214 54 309 54 c 1
 404 54 485 142 485 323 c 1
 485 711 l 1
EndSplineSet
Fore
605.128 711 m 1
 739.128 711 l 1
 660.057 339 l 1
 612.772 116.544 485.553 -14 318.024 -14 c 0
 150.495 -14 78.7725 116.544 126.057 339 c 1
 205.128 711 l 1
 339.128 711 l 1
 260.057 339 l 1
 224.73 172.803 271.315 104 343.105 104 c 1
 414.896 104 490.73 172.803 526.057 339 c 1
 605.128 711 l 1
EndSplineSet
EndChar
StartChar: V
Encoding: 54 86 109
Width: 636
Flags: HW
Back
494 711 m 1
 574 711 l 1
 359 0 l 1
 252 0 l 1
 34 711 l 1
 117 711 l 1
 305 82 l 1
 494 711 l 1
EndSplineSet
Fore
616.438 711 m 1
 752.128 711 l 1
 397.404 0 l 1
 242.908 0 l 1
 185.128 711 l 1
 326.378 711 l 1
 362.087 200.562 l 1
 616.438 711 l 1
EndSplineSet
KernsSLIFO: 124 -32 0 0 88 -119 0 0 92 -34 0 0
EndChar
StartChar: W
Encoding: 55 87 110
Width: 815
Flags: HW
Back
36 711 m 1
 111 711 l 1
 204 109 l 0
 343 693 l 1
 428 693 l 0
 567 109 l 1
 660 711 l 25
 735 711 l 1
 623 0 l 1
 516 0 l 1
 386 580 l 2
 256 0 l 1
 147 0 l 2
 36 711 l 1
EndSplineSet
Fore
187.128 711 m 1
 324.625 711 l 1
 297.578 262.749 l 0
 491.624 698.283 l 1
 629.487 697.911 l 0
 646.491 259.766 l 1
 811.656 711 l 25
 927.133 711 l 1
 660.161 0 l 1
 507.983 0 l 1
 497.589 456.769 l 2
 292.309 0 l 1
 148.063 0 l 2
 187.128 711 l 1
EndSplineSet
KernsSLIFO: 124 -13 0 0 88 -47 0 0
EndChar
StartChar: X
Encoding: 56 88 111
Width: 634
Flags: HW
Back
31 711 m 0
 120 711 l 1
 297 415 l 1
 470 711 l 1
 559 711 l 1
 338 356 l 1
 562 0 l 1
 469 0 l 1
 297 286 l 1
 121 0 l 1
 34 0 l 1
 256 356 l 1
 31 711 l 0
EndSplineSet
Fore
180.128 711 m 0
 330.845 711 l 1
 410.219 466.093 l 1
 595.191 711 l 1
 746.128 711 l 1
 463.822 354.991 l 1
 598.104 0 l 1
 433.58 0 l 1
 358.897 224.474 l 1
 190.615 0 l 1
 25.6396 0 l 1
 309.891 355 l 1
 180.128 711 l 0
EndSplineSet
EndChar
StartChar: Y
Encoding: 57 89 112
Width: 642
Flags: HW
HStem: 0 21G<258 389> 691 20G<32 171.57 473.556 610>
VStem: 258 131<0 344>
Back
32 711 m 1
 114 711 l 1
 288 418 l 1
 462 711 l 1
 544 711 l 1
 326 365 l 1
 326 0 l 1
 249 0 l 1
 249 365 l 1
 32 711 l 1
EndSplineSet
Fore
183.128 711 m 1
 322.697 711 l 1
 418.143 448.628 l 1
 624.684 711 l 1
 761.128 711 l 1
 462.119 344 l 1
 389 0 l 1
 258 0 l 1
 331.119 344 l 1
 183.128 711 l 1
EndSplineSet
KernsSLIFO: 88 -93 0 0 120 -62 0 0
EndChar
StartChar: Z
Encoding: 58 90 113
Width: 692
Flags: HW
Back
58 711 m 1
 597 711 l 1
 175 69 l 1
 603 69 l 1
 603 0 l 1
 44 0 l 1
 470 642 l 1
 58 642 l 1
 58 711 l 1
EndSplineSet
Fore
219.128 711 m 1
 788.754 711 l 1
 272.729 117 l 1
 659.869 117 l 1
 635 0 l 1
 35.3975 -0 l 1
 552.259 594 l 1
 194.259 594 l 1
 219.128 711 l 1
EndSplineSet
EndChar
StartChar: bracketleft
Encoding: 59 91 114
Width: 363
Flags: HW
Back
252 -47 m 0
 59 -47 l 1
 59 747 l 0
 252 747 l 1
 252 678 l 1
 132 678 l 1
 132 21 l 1
 252 21 l 1
 252 -47 l 0
EndSplineSet
Fore
293.897 -48 m 0
 48.7969 -48 l 1
 217.992 748 l 0
 463.093 748 l 1
 438.224 631 l 1
 317.123 631 l 1
 197.454 68 l 1
 318.554 68 l 1
 293.897 -48 l 0
EndSplineSet
EndChar
StartChar: backslash
Encoding: 60 92 115
Width: 418
Flags: HW
Back
332 0 m 1
 -19 754 l 1
 65 754 l 0
 415 0 l 1
 332 0 l 1
EndSplineSet
Fore
285.879 0 m 1
 141.268 754 l 1
 283.611 753.419 l 0
 437.154 0 l 1
 285.879 0 l 1
EndSplineSet
KernsSLIFO: 115 -70 0 0
EndChar
StartChar: bracketright
Encoding: 61 93 116
Width: 363
Flags: HW
Back
58 -47 m 0
 58 22 l 1
 178 22 l 1
 178 678 l 1
 58 678 l 1
 58 747 l 1
 251 747 l 0
 251 -47 l 1
 58 -47 l 0
EndSplineSet
Fore
47.7969 -48 m 0
 72.666 69 l 1
 192.666 69 l 1
 312.123 631 l 1
 192.123 631 l 1
 216.992 748 l 1
 461.093 748 l 0
 291.897 -48 l 1
 47.7969 -48 l 0
EndSplineSet
EndChar
StartChar: asciicircum
Encoding: 62 94 117
Width: 528
Flags: HW
Back
396 561 m 1
 304 561 l 1
 228 665 l 1
 151 562 l 0
 60 562 l 1
 195 729 l 1
 259 729 l 1
 396 561 l 1
EndSplineSet
Fore
571.162 560.615 m 1
 438.819 559 l 1
 391.144 639.303 l 1
 314.457 562 l 0
 179.048 562.086 l 1
 352.978 728.124 l 1
 468.571 728.655 l 1
 571.162 560.615 l 1
EndSplineSet
EndChar
StartChar: underscore
Encoding: 63 95 118
Width: 606
Flags: HW
Back
38 -113 m 1
 38 -44 l 1
 570 -44 l 1
 570 -113 l 1
 38 -113 l 1
EndSplineSet
Fore
8.87988 -137 m 1
 33.749 -20 l 1
 565.749 -20 l 1
 540.88 -137 l 1
 8.87988 -137 l 1
EndSplineSet
EndChar
StartChar: grave
Encoding: 64 96 119
Width: 262
Flags: HW
Back
211 635 m 1
 132 635 l 2
 47 759 l 2
 124 759 l 1
 211 635 l 1
EndSplineSet
Fore
276.893 552.5 m 2
 188.503 692.592 l 1
 178.652 710.783 204.633 747.188 223.758 758.411 c 0
 243.475 771.226 280.555 782.137 290.082 764.544 c 1
 359.943 612.411 l 2
 365.262 600.383 339.81 571.531 327.899 563.791 c 0
 315.177 555.521 284 541.471 276.893 552.5 c 2
EndSplineSet
EndChar
StartChar: a
Encoding: 65 97 120
Width: 508
Flags: HW
HStem: -14 108<477.826 489.208> 251 111<234 254> 438 100<219 257>
VStem: 44 118<161 179>
Back
155 186 m 0
 155 234.576 194.424 274 243 274 c 0
 291.576 274 331 234.576 331 186 c 0
 331 137.424 291.576 98 243 98 c 0
 194.424 98 155 137.424 155 186 c 0
48 184 m 0
 48 292.192 135.808 380 244 380 c 0
 352.192 380 440 292.192 440 184 c 0
 440 75.808 352.192 -12 244 -12 c 0
 135.808 -12 48 75.808 48 184 c 0
EndSplineSet
Fore
307.352 251 m 1
 247.352 251 209.056 221.38 198.984 174 c 1
 189.633 130 214.83 98 274.83 98 c 1
 322.83 98 367.707 128 377.421 173.7 c 1
 387.846 222.745 363.352 251 307.352 251 c 1
310.945 362 m 1
 364.945 362 396.443 322 403.129 297 c 1
 423.747 394 403.1 438 338.1 438 c 1
 276.1 438 254.549 426 213.998 414 c 9
 208.404 510 l 17
 271.08 532 279.084 538 358.355 538 c 1
 486.355 538 548.756 480 513.047 312 c 8
 499.515 248.338 477.989 148.764 477.989 148.764 c 0
 472.173 121.402 471.98 94 509.228 94 c 1
 487.524 -14 l 1
 427.778 -14 363.377 30 373.154 76 c 1
 352.077 38 301.024 -14 233.024 -14 c 1
 119.024 -14 56.7529 60 81.1973 175 c 1
 104.366 284 188.945 362 310.945 362 c 1
EndSplineSet
KernsSLIFO: 42 -60 0 0
EndChar
StartChar: b
Encoding: 66 98 121
Width: 548
Flags: HW
Back
132 0 m 17
 58 0 l 1
 58 710 l 1
 132 710 l 1
 132 439 l 17
 162 486 198 533 269 533 c 0
 392 533 451 402 451 264 c 0
 451 126 408 -14 250 -14 c 1
 170 -14 132 68 132 68 c 0
 132 0 l 17
376 262 m 0
 376 376 336 467 274 467 c 1
 206 467 130 388 130 262 c 1
 130 120 200 52 255 52 c 0
 328 52 376 128 376 262 c 0
EndSplineSet
Fore
184 0 m 17
 58 0 l 1
 208.915 710 l 1
 334.915 710 l 1
 284.327 472 l 17
 323.129 504 369.148 535 413.718 535 c 0
 544.828 535 608.652 398.26 577.139 250 c 0
 548.25 114.085 446.973 -13.7998 284.956 -13.7998 c 1
 234.861 -13.7998 195.479 54 195.479 54 c 0
 195.479 54 188.477 21.0596 184 0 c 17
452.265 260 m 0
 472.005 352.868 431.813 423 392.911 423 c 1
 348.994 423 261.196 382 235.689 262 c 1
 206.727 125.738 276.19 98 311.83 98 c 0
 357.682 98 428.937 150.248 452.265 260 c 0
EndSplineSet
EndChar
StartChar: c
Encoding: 67 99 122
Width: 537
Flags: HW
Back
408 469 m 9
 359 420 l 2
 331 448 302 468 244 468 c 1
 180 468 117 380 117 262 c 0
 117 144 190 51 254 51 c 0
 316 51 339 77 362 106 c 9
 410 58 l 1
 384 30 350 -14 254 -15 c 1
 128 -15 42 102 42 262 c 0
 42 422 132 534 244 534 c 0
 322 534 362 514 408 469 c 9
EndSplineSet
Fore
576.521 360 m 9
 455.521 360 l 17
 445.747 394 425.763 425 376.337 425 c 1
 312.841 425 245.842 356.806 225.265 260 c 0
 204.7 163.251 247.043 99 317.043 99 c 1
 369.043 99 385.207 128 404.733 154 c 9
 532.733 154 l 1
 503.13 90 405.024 -14 293.024 -14 c 1
 136.118 -14 62.1504 94.8018 97.2646 260 c 0
 132.399 425.294 259.311 537 400.143 537 c 0
 486.143 537 581.177 476 576.521 360 c 9
EndSplineSet
EndChar
StartChar: d
Encoding: 68 100 123
Width: 548
Flags: HW
Back
362 0 m 9
 362 68 l 0
 362 68 324 -14 244 -14 c 1
 86 -14 43 126 43 264 c 0
 43 402 102 533 225 533 c 0
 296 533 334 482 362 439 c 9
 362 710 l 1
 436 710 l 1
 436 0 l 1
 362 0 l 9
118 262 m 0
 118 128 166 52 239 52 c 0
 294 52 364 120 364 262 c 1
 364 388 288 467 220 467 c 1
 158 467 118 376 118 262 c 0
EndSplineSet
Fore
371 0 m 9
 375.477 21.0596 382.479 54 382.479 54 c 0
 382.479 54 314.271 -13.7998 264.178 -13.7998 c 1
 102.161 -13.7998 55.25 114.085 84.1387 250 c 0
 115.652 398.26 238.245 538 369.355 538 c 0
 413.925 538 447.829 512 471.327 472 c 9
 521.915 710 l 1
 647.915 710 l 1
 497 0 l 1
 371 0 l 9
213.265 260 m 0
 189.937 150.248 238.979 98 284.83 98 c 0
 320.471 98 401.727 125.738 430.689 262 c 1
 456.196 382 386.466 426 342.549 426 c 1
 303.647 426 233.005 352.868 213.265 260 c 0
EndSplineSet
EndChar
StartChar: e
Encoding: 69 101 124
Width: 534
Flags: HW
HStem: -14 112<282 284> 206 112<177 501> 424 112<278 284>
Back
120.656 295 m 1
 375.344 295 l 1
 370 380 326.031 468 248 468 c 0
 169.969 468 126 378 120.656 295 c 1
120.641 229 m 1
 128 140 169.938 52 248 52 c 0
 294.016 52 326.375 79.3281 347.422 118.484 c 0
 412.344 91.6094 l 0
 378.984 27.0625 323.422 -14 248 -14 c 1
 118 -14 43 108 43 262 c 0
 43 416 118 534 248 534 c 0
 378 534 451 416 451 262 c 0
 451 251.24 451.469 240.156 451.469 229 c 1
 120.641 229 l 1
EndSplineSet
Fore
244.722 318 m 1
 446.467 318 l 1
 453.826 372.538 429.935 424 368.124 424 c 0
 306.314 424 260.274 371.254 244.722 318 c 1
221.227 206 m 1
 214.425 146.667 241.194 98 302.83 98 c 0
 339.067 98 376.779 113.189 401.024 149.281 c 0
 509.728 114.717 l 0
 458.347 29.9355 354.446 -14 279.024 -14 c 1
 149.024 -14 64.7793 102.464 98.7109 262.1 c 0
 132.275 420.007 261.931 536 391.931 536 c 0
 521.931 536 590.275 420.007 556.711 262.1 c 0
 544.787 206 l 1
 221.227 206 l 1
EndSplineSet
KernsSLIFO: 40 -26 0 0
EndChar
StartChar: f
Encoding: 70 102 125
Width: 382
Flags: HW
Back
198 458 m 0
 198 0 l 1
 124 0 l 1
 124 458 l 0
 56 458 l 1
 56 524 l 1
 124 524 l 0
 124 578 l 1
 124 674 180 723 263 723 c 0
 304 723 319 710 348 693 c 9
 301 646 l 17
 284 654 282 657 268 657 c 0
 220 657 198 629 198 578 c 1
 198 524 l 0
 294 524 l 1
 294 458 l 1
 198 458 l 0
EndSplineSet
Fore
317.573 412 m 0
 229.8 0 l 1
 104 0 l 1
 191.573 412 l 0
 123.573 412 l 1
 147.38 524 l 1
 215.38 524 l 0
 223.669 563 l 1
 237.485 628 332.528 727 429.528 727 c 0
 470.433 727 508.224 712.073 531.062 683.4 c 9
 439.684 596 l 17
 430.772 609.818 410.48 615 400.723 615 c 0
 372.723 615 357.759 602 351.521 572.653 c 1
 341.38 524 l 0
 421.979 524 l 1
 398.173 412 l 1
 317.573 412 l 0
EndSplineSet
KernsSLIFO: 120 -39 0 0 34 -33 0 0 45 -20 0 0 40 -34 0 0 41 -40 0 0 35 -20 0 0
EndChar
StartChar: g
Encoding: 71 103 126
Width: 564
Flags: HW
Back
118 263 m 0
 118 129 166 53 239 53 c 0
 294 53 364 121 364 263 c 1
 364 389 288 468 220 468 c 1
 158 468 118 377 118 263 c 0
362 69 m 1
 357 58.5 325 -13 244 -13 c 1
 86 -13 43 127 43 265 c 0
 43 403 102 534 225 534 c 0
 296 534 332 490 362 440 c 9
 362 524 l 1
 436 524 l 1
 436 -9 l 2
 436 -142 347 -219 248 -219 c 1
 119 -219 63 -119 55 -53 c 0
 55 -53 97.7002 -53 125 -53 c 17
 134 -111 186 -153 244 -153 c 0
 305 -153 362 -110 362 -16 c 0
 362 69 l 1
EndSplineSet
Fore
225.478 261 m 0
 202.284 151.886 251.376 98 297.83 98 c 0
 333.207 98 418.333 145.53 442.981 261.49 c 1
 464.866 364.447 399.182 426 355.549 426 c 1
 316.039 426 245.335 354.424 225.478 261 c 0
396.413 58.4004 m 1
 391.634 50.666 327.821 -14 277.024 -14 c 1
 114.308 -14 68.8311 121.525 98.9023 263 c 0
 129.217 405.617 250.569 538 382.355 538 c 0
 426.925 538 467.645 482.116 477.085 437.929 c 9
 495.38 524 l 1
 621.38 524 l 1
 506.812 -15 l 2
 479.817 -142 337.75 -227 233.75 -227 c 1
 107.69 -227 45.8232 -119.47 53.0908 -48.5 c 0
 53.0908 -48.5 126.271 -45.127 173.06 -42.9697 c 17
 169.432 -84.167 232.72 -114 265.769 -114 c 0
 325.769 -114 365.72 -86 376.773 -34 c 0
 396.413 58.4004 l 1
EndSplineSet
EndChar
StartChar: h
Encoding: 72 104 127
Width: 533
Flags: HW
Back
132 0 m 9
 58 0 l 1
 58 710 l 1
 132 710 l 1
 132 450 l 17
 166 486 204 535 275 535 c 0
 400 535 442 430 442 304 c 0
 442 0 l 1
 368 0 l 0
 368 302 l 0
 368 386 334 468 280 468 c 1
 218 468 132 406 132 322 c 0
 132 0 l 9
EndSplineSet
Fore
184 0 m 9
 58 0 l 1
 208.915 710 l 1
 334.915 710 l 1
 278.646 445.273 l 17
 317.428 496 386.179 538 453.061 538 c 0
 555.077 538 584.911 423 554.304 279 c 0
 495 0 l 1
 369 0 l 0
 427.878 277 l 0
 444.228 353.916 426.124 424 385.124 424 c 1
 342.124 424 263.092 372.096 246.704 295 c 0
 184 0 l 9
EndSplineSet
EndChar
StartChar: i
Encoding: 73 105 128
Width: 261
Flags: HW
Back
59 651 m 0
 59 676 80 697 105 697 c 0
 130 697 151 676 151 651 c 0
 151 626 130 605 105 605 c 0
 80 605 59 626 59 651 c 0
68 524 m 1
 142 524 l 1
 142 0 l 1
 68 0 l 1
 68 524 l 1
EndSplineSet
Fore
197.417 651.2 m 0
 206.45 693.7 246.862 729.4 285.938 729.4 c 0
 325.015 729.4 350.25 693.7 341.217 651.2 c 0
 332.184 608.7 291.817 573 252.795 573 c 0
 213.664 573 188.383 608.7 197.417 651.2 c 0
179.38 524 m 1
 305.38 524 l 1
 194 0 l 1
 68 0 l 1
 179.38 524 l 1
EndSplineSet
EndChar
StartChar: j
Encoding: 74 106 129
Width: 261
Flags: HW
Back
59 651 m 0
 59 676 80 697 105 697 c 0
 130 697 151 676 151 651 c 0
 151 626 130 605 105 605 c 0
 80 605 59 626 59 651 c 0
-121 -172 m 9
 -68 -127 l 1
 -56 -138 -38 -144 -14 -144 c 1
 50 -144 68 -102 68 0 c 1
 68 524 l 1
 142 524 l 0
 142 0 l 1
 142 -148 86 -210 -14 -210 c 1
 -64 -210 -97 -195 -121 -172 c 9
EndSplineSet
Fore
197.417 651.2 m 0
 206.45 693.7 246.862 729.4 285.938 729.4 c 0
 325.015 729.4 350.25 693.7 341.217 651.2 c 0
 332.184 608.7 291.817 573 252.795 573 c 0
 213.664 573 188.383 608.7 197.417 651.2 c 0
-149.604 -162.8 m 9
 -49.5703 -78.6562 l 1
 -44.1299 -90 -26.8662 -99 -10.043 -99 c 1
 22.957 -99 51.8457 -76 58.4346 -45 c 1
 179.38 524 l 1
 305.38 524 l 0
 190.387 -17 l 1
 169.131 -117 55.1504 -211 -38.8496 -211 c 1
 -88.8496 -211 -122.149 -203 -149.604 -162.8 c 9
EndSplineSet
EndChar
StartChar: k
Encoding: 75 107 130
Width: 488
Flags: HW
Back
204 308 m 1
 454 0 l 1
 369 0 l 1
 154 260 l 1
 132 234 l 1
 132 0 l 1
 58 0 l 1
 58 710 l 1
 132 710 l 1
 132 327 l 17
 328 524 l 1
 413 524 l 1
 204 308 l 1
EndSplineSet
Fore
344.058 291.612 m 1
 486.441 0 l 1
 342.613 0 l 1
 239.463 228 l 1
 230.125 217 l 1
 184 0 l 1
 58 0 l 1
 208.915 710 l 1
 334.915 710 l 1
 258.335 349.718 l 17
 432.756 524 l 1
 586.38 524 l 1
 344.058 291.612 l 1
EndSplineSet
EndChar
StartChar: l
Encoding: 76 108 131
Width: 274
Flags: HW
Back
142 105 m 1
 142 66 146 50 160 50 c 1
 160 -14 l 1
 86 -14 68 6 68 103 c 1
 68 710 l 1
 142 710 l 1
 142 105 l 1
EndSplineSet
Fore
223.12 137 m 1
 218.267 114.167 224.15 94.7998 259.45 94.7998 c 1
 236.024 -14 l 1
 120.198 -14 72.2002 19.7607 96.6953 135 c 1
 218.915 710 l 1
 344.915 710 l 1
 223.12 137 l 1
EndSplineSet
EndChar
StartChar: braceleft
Encoding: 91 123 132
Width: 365
Flags: HW
Back
39 356 m 1
 171 398 118 623 144 684 c 1
 174 745 238 745 305 747 c 1
 305 681 l 1
 298 682 291 683 284 683 c 0
 258 683 223 673 210 654 c 1
 205 645 204 626 204 604 c 2
 204 582 l 2
 204 523 192 376 143 356 c 1
 192 338 204 178 204 116 c 0
 204 95 l 0
 204 71 205 52 210 43 c 1
 223 24 258 14 284 14 c 0
 291 14 298 15 305 16 c 1
 305 -50 l 1
 238 -48 174 -48 144 13 c 1
 118 74 171 316 39 356 c 1
EndSplineSet
Fore
114.67 356 m 1
 244.173 396 253.736 648 295.853 705 c 0
 337.458 761.309 400.046 760.35 476.968 762 c 1
 454.862 658 l 1
 400.862 658 374.598 643 362.057 584 c 0
 346.115 509 313.196 382 248.67 356 c 1
 302.356 331 281.073 203 265.131 128 c 0
 252.591 69 272.479 54 326.479 54 c 1
 304.372 -50 l 1
 228.152 -48.3496 165.155 -49.3086 147.488 7 c 0
 129.604 64 227.381 317 114.67 356 c 1
EndSplineSet
EndChar
StartChar: bar
Encoding: 92 124 133
Width: 229
Flags: HW
Back
56 0 m 17
 56 710 l 1
 126 710 l 1
 126 0 l 9
 56 0 l 17
EndSplineSet
Fore
56 0 m 17
 206.915 710 l 1
 325.915 710 l 1
 175 0 l 9
 56 0 l 17
EndSplineSet
EndChar
StartChar: braceright
Encoding: 93 125 134
Width: 365
Flags: HW
Back
326 356 m 1
 194 316 247 77 221 16 c 1
 191 -45 127 -45 60 -47 c 1
 60 19 l 1
 67 18 74 17 81 17 c 0
 107 17 142 27 155 46 c 1
 160 55 161 74 161 98 c 0
 161 119 l 0
 161 181 173 338 222 356 c 1
 173 376 161 523 161 582 c 2
 161 604 l 2
 161 626 160 645 155 654 c 1
 142 673 107 683 81 683 c 0
 74 683 67 682 60 681 c 1
 60 747 l 1
 127 745 191 745 221 684 c 1
 247 623 194 398 326 356 c 1
EndSplineSet
Fore
410.67 356 m 1
 281.381 317 271.604 64 229.488 7 c 0
 187.882 -49.3086 125.294 -48.3496 48.3721 -50 c 1
 70.4785 54 l 1
 124.479 54 150.742 69 163.283 128 c 0
 179.225 203 212.356 331 276.67 356 c 1
 223.196 382 244.268 509 260.209 584 c 0
 272.75 643 252.862 658 198.862 658 c 1
 220.968 762 l 1
 297.188 760.35 360.185 761.309 377.853 705 c 0
 395.736 648 298.173 396 410.67 356 c 1
EndSplineSet
EndChar
StartChar: asciitilde
Encoding: 94 126 135
Width: 371
Flags: HW
Back
26 373 m 17
 48 391 77 420 115 420 c 0
 163 420 194 346 245 346 c 1
 279 346 307 372 337 394 c 9
 337 323 l 17
 307 300 281 275 245 275 c 0
 189 275 154 349 114 349 c 0
 76 349 53 324 26 302 c 9
 26 373 l 17
EndSplineSet
Fore
109.865 394.553 m 17x60
 135.703 412.609 171.523 444.7 209.523 444.7 c 0x60
 257.523 444.7 277.795 370.7 328.795 370.7 c 1
 362.795 370.7 401.66 403 426.911 423 c 9
 398.917 296 l 17
 377.941 282 343.835 250 303.139 250 c 0xa0
 247.139 250 222.868 324 182.868 324 c 0
 144.868 324 119.555 299 84.8779 277 c 9
 109.865 394.553 l 17x60
EndSplineSet
EndChar
StartChar: cent
Encoding: 97 162 138
Width: 432
Flags: HW
Back
181 136 m 1
 100 146 34 212 34 321 c 0
 34 426 118 470 179 485 c 1
 179 590 l 1
 245 590 l 1
 245 485 l 1
 284 475 316 453 342 430 c 9
 298 384 l 2
 284 398 258 423 207 423 c 1
 153 423 104 380 104 319 c 0
 104 244 148 198 210 198 c 0
 250 198 284 214 312 250 c 9
 356 206 l 1
 336 174 295 149 247 134 c 1
 247 38 l 1
 181 38 l 1
 181 136 l 1
EndSplineSet
Fore
183.396 143 m 1
 119.651 151.595 79.5547 214.319 99.4678 308 c 0
 119.851 403.897 199.631 463.082 251.343 476.782 c 1
 275.408 590 l 1
 387.608 590 l 1
 363.59 477 l 1
 399.366 459.945 424.075 452 441.849 418 c 9
 353.545 346 l 2
 349.841 343.354 340.858 371 294.858 371 c 1
 260.858 371 225.27 340 218.255 307 c 0
 210.391 270 229.738 234 264.738 234 c 0
 305.738 234 323.564 252 345.815 272 c 9
 401.299 199 l 1
 367.284 166 348.733 154 294.545 139 c 1
 273.077 38 l 1
 161.077 38 l 1
 183.396 143 l 1
EndSplineSet
EndChar
StartChar: sterling
Encoding: 98 163 139
Width: 619
Flags: HW
Back
147 291 m 1
 36 291 l 1
 36 357 l 1
 152 357 l 1
 152 586 190 716 286 716 c 0
 356 716 410 672 446 571 c 1
 376 568 l 1
 366 608 338 651 286 651 c 0
 254 651 227 534 227 456 c 2
 227 395 l 1
 227 357 l 1
 402 357 l 1
 402 291 l 1
 224 291 l 1
 218.708 216.919 191.104 123.312 172 66 c 1
 418 66 l 1
 434 67 451 68 475 101 c 1
 514 45 l 1
 491 10 451 6 412 0 c 1
 66 0 l 1
 82.0318 64.127 140.42 185.721 147 291 c 1
EndSplineSet
Fore
200.562 268 m 1
 92.9648 268 l 1
 116.771 380 l 1
 232.771 380 l 1
 278.871 596.88 357.787 720 491.041 720 c 0
 561.26 720 604.815 670.07 616.566 555.457 c 1
 521.844 545 l 1
 520.843 575.843 506.736 609 467.447 609 c 0
 435.989 609 391.082 522.6 378.839 465 c 2
 367.786 413 l 1
 360.771 380 l 1
 534.771 380 l 1
 510.965 268 l 1
 337.965 268 l 1
 318.092 216.637 299.159 156 266.807 112 c 1
 493.139 112.622 l 1
 513.938 112.622 536.907 136 546.477 150.436 c 1
 602.154 76 l 1
 562.981 16.8887 512 0 468 0 c 1
 66 0 l 1
 93.9111 59.0586 173.649 171.042 200.562 268 c 1
EndSplineSet
EndChar
StartChar: currency
Encoding: 99 164 140
Width: 482
Flags: HW
Back
70 368 m 4
 70 461.84 146.16 538 240 538 c 4
 333.84 538 410 461.84 410 368 c 4
 410 274.16 333.84 198 240 198 c 4
 146.16 198 70 274.16 70 368 c 4
192 368 m 0
 192 394.496 213.504 416 240 416 c 0
 266.496 416 288 394.496 288 368 c 0
 288 341.504 266.496 320 240 320 c 0
 213.504 320 192 341.504 192 368 c 0
EndSplineSet
Fore
270.008 367 m 0
 263.844 338 284.486 319.852 308.986 319.852 c 0
 333.986 319.852 360.801 342.5 366.008 367 c 0
 372.278 396.5 353.424 416 329.424 416 c 0
 302.924 416 276.278 396.5 270.008 367 c 0
336.999 207 m 1
 320.512 200 291.178 198 283.086 198 c 0
 274.994 198 246.905 199.5 232.787 206 c 1
 220.671 149 l 1
 57.6709 149 l 1
 92.3174 312 l 1
 146.317 312 l 1
 143.293 326 143.476 345.677 147.796 366 c 0
 152.052 386.022 159.298 406 167.062 419 c 1
 115.062 419 l 1
 149.708 582 l 1
 312.708 582 l 1
 301.535 529.438 l 1
 317.931 536 347.364 538.473 355.456 538.473 c 0
 363.548 538.473 395.218 535 405.5 529.271 c 1
 416.708 582 l 1
 579.708 582 l 1
 545.062 419 l 1
 490.732 419 l 1
 491.598 398 492.181 386.022 487.925 366 c 0
 483.604 345.677 476.356 331 466.24 312 c 1
 522.317 312 l 1
 487.671 149 l 1
 324.671 149 l 1
 336.999 207 l 1
EndSplineSet
EndChar
StartChar: yen
Encoding: 100 165 141
Width: 555
Flags: HW
Back
225 333 m 1
 73 333 l 1
 73 399 l 1
 199 399 l 1
 31 682 l 1
 107 682 l 1
 265 406 l 1
 433 682 l 1
 509 682 l 1
 327 399 l 1
 448 399 l 1
 448 333 l 1
 299 333 l 1
 299 228 l 1
 448 228 l 1
 448 162 l 1
 299 162 l 1
 299 0 l 1
 225 0 l 1
 225 162 l 1
 73 162 l 1
 73 228 l 1
 225 228 l 1
 225 333 l 1
EndSplineSet
Fore
270.893 310 m 1
 135.893 310 l 1
 159.699 422 l 1
 242.388 422 l 1
 166.964 682 l 1
 304.964 682 l 1
 365.021 433.725 l 1
 538.964 682 l 1
 666.964 682 l 1
 472.059 422 l 1
 547.699 422 l 1
 523.893 310 l 1
 396.893 310 l 1
 384.352 251 l 1
 511.352 251 l 1
 487.545 139 l 1
 360.545 139 l 1
 330.8 0 l 1
 205 0 l 1
 234.545 139 l 1
 99.5449 139 l 1
 123.352 251 l 1
 258.352 251 l 1
 270.893 310 l 1
EndSplineSet
EndChar
StartChar: brokenbar
Encoding: 101 166 142
Width: 198
Flags: HW
Back
109 325 m 17
 109 0 l 1
 39 0 l 1
 39 325 l 9
 109 325 l 17
39 375 m 17
 39 700 l 1
 109 700 l 1
 109 375 l 9
 39 375 l 17
EndSplineSet
Fore
227.081 325 m 17
 158 0 l 1
 39 0 l 1
 108.081 325 l 9
 227.081 325 l 17
118.709 375 m 17
 187.79 700 l 1
 306.79 700 l 1
 237.709 375 l 9
 118.709 375 l 17
EndSplineSet
EndChar
StartChar: section
Encoding: 102 167 143
Width: 339
Flags: HW
Back
86 468 m 1
 95.1215 470.606 105.656 471.999 118 472 c 0
 218.699 472 321 382 321 259 c 0
 321 150 252 51 166 51 c 0
 108 51 59.7628 74.9002 20 142 c 9
 93 147 l 17
 106 129 139 117 158 117 c 2
 160 117 l 2
 208 117 240 160 250 215 c 0
 251.322 222.271 229.713 211.003 218 211 c 0
 118.877 211 16 282 16 426 c 0
 16 532 78 632 170 632 c 0
 236 632 266 608 309 552 c 1
 234 544 l 0
 222 557 194 566 178 566 c 2
 176 566 l 2
 124 566 98 522 86 468 c 1
242 284 m 0
 242 341 190 406 117 406 c 0
 105.675 406 98.2422 403.71 90 399 c 1
 90 341 156 277 215 277 c 0
 225.907 277 242 275.589 242 284 c 0
EndSplineSet
Fore
240.656 490.903 m 1
 245.411 493.572 250.549 494.999 256.216 495 c 0
 342.678 495 410.271 399.761 382.605 269.6 c 0
 355.694 142.992 260.338 28 171.951 28 c 0
 115.063 28 74.7256 60.8066 55.3027 152.913 c 9
 164.984 174 l 17
 163.662 151.452 188.687 140 193.758 140 c 2
 215.417 140 235.179 165.041 246.499 197.071 c 0
 250.896 213.56 230.872 188.007 222.961 188 c 0
 141.013 188 72.0352 263.623 104.636 417 c 0
 130.667 539.466 216.419 655 307.225 655 c 0
 372.228 655 394.229 619.5 418.972 536.667 c 1
 308.829 512 l 0
 311.665 534.786 288.094 543 285.418 543 c 2
 265.954 543 251.25 519.609 240.656 490.903 c 1
255.83 305 m 0
 263.576 341.443 255.77 383 232.409 383 c 0
 228.634 383 225.878 381.691 222.559 379 c 1
 214.576 341.443 226.887 300 245.767 300 c 0
 249.403 300 254.553 298.992 255.83 305 c 0
EndSplineSet
EndChar
StartChar: dieresis
Encoding: 103 168 144
Width: 456
Flags: HW
HStem: 326 21<89.9199 134.08 319.92 364.08>
Back
262 409 m 0
 262 434 283 455 308 455 c 0
 333 455 354 434 354 409 c 0
 354 384 333 363 308 363 c 0
 283 363 262 384 262 409 c 0
32 408 m 0
 32 433 53 454 78 454 c 0
 103 454 124 433 124 408 c 0
 124 383 103 362 78 362 c 0
 53 362 32 383 32 408 c 0
EndSplineSet
Refer: 14 46 N 1 0 0 1 306.694 342 2
Refer: 14 46 N 1 0 0 1 76.6943 342 2
EndChar
StartChar: copyright
Encoding: 104 169 145
Width: 532
Flags: HW
Back
-38 364 m 4
 -38 513.04 80.272 634 226 634 c 4
 371.728 634 490 513.04 490 364 c 4
 490 214.96 371.728 94 226 94 c 4
 80.272 94 -38 214.96 -38 364 c 4
319.48 282.82 m 21
 297.34 260.68 264.13 242.23 229.69 242.23 c 4
 160.81 242.23 105.46 297.58 105.46 366.46 c 4
 105.46 435.34 160.81 490.69 229.69 490.69 c 4
 264.13 490.69 297.34 477.16 319.48 455.02 c 13
 264 398 l 21
 255 406 242 412 229 412 c 4
 204 412 183 391 183 366 c 4
 183 341 204 320 229 320 c 4
 242 320 257 325 266 333 c 13
 319.48 282.82 l 21
48.5996 366.3 m 4
 48.5996 266.25 129.1 184.6 229.15 184.6 c 4
 329.2 184.6 409.7 266.25 409.7 366.3 c 4
 409.7 466.35 329.2 548 229.15 548 c 4
 129.1 548 48.5996 466.35 48.5996 366.3 c 4
EndSplineSet
Fore
39.3701 364 m 0
 71.0498 513.04 215.033 634 360.761 634 c 0
 506.489 634 599.05 513.04 567.37 364 c 0
 535.691 214.96 391.708 94 245.98 94 c 0
 100.252 94 7.69141 214.96 39.3701 364 c 0
379.596 282.82 m 17
 352.749 260.68 315.617 242.23 281.178 242.23 c 0
 212.298 242.23 168.713 297.58 183.354 366.46 c 0
 197.994 435.34 265.109 490.69 333.989 490.69 c 0
 368.43 490.69 398.764 477.16 416.197 455.02 c 9
 348.598 398 l 17
 341.298 406 329.573 412 316.573 412 c 0
 291.573 412 266.109 391 260.796 366 c 0
 255.481 341 272.019 320 297.019 320 c 0
 310.019 320 326.081 325 336.781 333 c 9
 379.596 282.82 l 17
126.459 366.3 m 0
 105.192 266.25 168.338 184.6 268.388 184.6 c 0
 368.438 184.6 466.293 266.25 487.56 366.3 c 0
 508.826 466.35 445.681 548 345.631 548 c 0
 245.581 548 147.726 466.35 126.459 366.3 c 0
EndSplineSet
EndChar
StartChar: guillemotleft
Encoding: 106 171 146
Width: 443
Flags: HW
Back
314 546 m 1
 380 546 l 1
 286 404 l 1
 380 262 l 1
 314 262 l 1
 220 404 l 1
 314 546 l 1
118 546 m 1
 184 546 l 1
 90 404 l 1
 184 262 l 1
 118 262 l 1
 24 404 l 1
 118 546 l 1
EndSplineSet
Fore
405.221 546.611 m 1
 510.056 546 l 1
 385.961 403.779 l 1
 449.572 261.611 l 1
 344.689 262 l 1
 280.69 403.779 l 1
 405.221 546.611 l 1
233.221 546.611 m 1
 340.056 546 l 1
 215.961 403.779 l 1
 277.572 261.611 l 1
 172.689 262 l 1
 110.69 403.779 l 1
 233.221 546.611 l 1
EndSplineSet
EndChar
StartChar: logicalnot
Encoding: 107 172 147
Width: 547
Flags: HW
Back
444 266 m 1
 378 266 l 1
 378 366 l 0
 70 366 l 1
 70 436 l 1
 444 436 l 1
 444 266 l 1
EndSplineSet
Fore
526.348 171 m 1
 414.348 171 l 1
 450.481 341 l 0
 142.481 341 l 1
 167.776 460 l 1
 587.776 460 l 1
 526.348 171 l 1
EndSplineSet
EndChar
StartChar: registered
Encoding: 109 174 149
Width: 598
Flags: HW
Back
98 366 m 0
 98 234 204 175 289 175 c 0
 376 175 481 244 481 366 c 0
 481 498 364 558 289 558 c 0
 202 558 98 496 98 366 c 0
41 366 m 0
 41 538 180 615 289 615 c 0
 424 615 538 510 538 366 c 0
 538 218 414 118 289 118 c 0
 174 118 41 202 41 366 c 0
243 391 m 1
 251 391 259 391 268 391 c 0
 306 391 343 394 343 423 c 1
 343 453 297 455 257 455 c 0
 252 455 247 455 243 455 c 1
 243 391 l 1
203 493 m 0
 243 493 l 1
 316 493 382 475 382 423 c 0
 382 374 338 361 291 354 c 1
 393 242 l 1
 344 242 l 1
 243 352 l 1
 243 242 l 1
 203 242 l 1
 203 493 l 0
EndSplineSet
Fore
215.158 363 m 0
 190.479 246.895 268.8 195 340.448 195 c 0
 412.495 195 512.349 255.691 535.158 363 c 0
 560.731 483.312 475.465 538 413.355 538 c 0
 340.021 538 240.344 481.49 215.158 363 c 0
118.158 363 m 0
 158.095 550.888 320.578 635 433.974 635 c 0
 572.769 635 665.594 520.301 632.158 363 c 0
 598.543 204.855 448.345 98 319.83 98 c 0
 200.193 98 80.9092 187.758 118.158 363 c 0
341.071 372 m 1
 347.471 372 353.769 371.52 360.969 371.52 c 0
 391.369 371.52 412.536 374.19 418.022 400 c 1
 423.603 426.25 396.067 428 363.975 428 c 0
 360.045 428 356.117 428 352.975 428 c 1
 341.071 372 l 1
298.705 492.6 m 0
 366.79 493 l 1
 443.467 493 498.707 469.086 484.022 400 c 0
 473.183 349.002 442.131 335.472 400.871 328.188 c 1
 454.305 239.654 l 1
 371.014 240 l 1
 328.705 313.824 l 1
 313.014 240 l 1
 245.014 240 l 1
 298.705 492.6 l 0
EndSplineSet
EndChar
StartChar: macron
Encoding: 110 175 150
Width: 345
Flags: HW
Back
26 552 m 1
 321 552 l 1
 321 486 l 1
 26 486 l 1
 26 552 l 1
EndSplineSet
Fore
147.582 572 m 1
 442.582 572 l 1
 418.563 459 l 1
 123.563 459 l 1
 147.582 572 l 1
EndSplineSet
EndChar
StartChar: degree
Encoding: 111 176 151
Width: 373
Flags: HW
Back
76.3203 575.05 m 4
 76.3203 534.16 107.34 501.73 146.82 501.73 c 4
 186.3 501.73 217.32 534.16 217.32 575.05 c 4
 217.32 615.94 186.3 648.37 146.82 648.37 c 4
 107.34 648.37 76.3203 615.94 76.3203 575.05 c 4
-8.08984 575.21 m 4
 -8.08984 659.91 60.8799 727.67 146.79 727.67 c 4
 232.7 727.67 301.67 659.91 301.67 575.21 c 4
 301.67 490.51 232.7 422.75 146.79 422.75 c 4
 60.8799 422.75 -8.08984 490.51 -8.08984 575.21 c 4
EndSplineSet
Fore
198.551 575.05 m 0
 189.859 534.16 213.986 501.73 253.466 501.73 c 0
 292.946 501.73 330.859 534.16 339.551 575.05 c 0
 348.242 615.94 324.115 648.37 284.636 648.37 c 0
 245.155 648.37 207.242 615.94 198.551 575.05 c 0
114.175 575.21 m 0
 132.179 659.91 215.551 727.67 301.461 727.67 c 0
 387.371 727.67 441.938 659.91 423.935 575.21 c 0
 405.931 490.51 322.559 422.75 236.648 422.75 c 0
 150.738 422.75 96.1709 490.51 114.175 575.21 c 0
EndSplineSet
EndChar
StartChar: acute
Encoding: 115 180 153
Width: 282
Flags: HWO
Back
44 609 m 1
 127 728 l 1
 211 728 l 2
 129 609 l 2
 44 609 l 1
EndSplineSet
Fore
239.982 552.5 m 2
 228.187 541.471 202.983 555.521 193.776 563.791 c 0
 185.155 571.53 171.97 600.383 182.4 612.411 c 2
 316.936 764.544 l 1
 333.942 782.137 366.383 771.226 380.652 758.411 c 0
 395.008 747.188 405.512 710.783 387.927 692.592 c 1
 239.982 552.5 l 2
EndSplineSet
EndChar
StartChar: mu
Encoding: 116 181 154
Width: 551
Flags: HW
Back
140 36.1504 m 1
 140 -193 l 1
 70 -193 l 1
 70 426 l 1
 141 426 l 0
 141 202 l 0
 141 94 179 54 237 54 c 1
 315 54 350 142 350 202 c 0
 350 426 l 9
 420 426 l 1
 420 0 l 1
 350 0 l 1
 350 48 l 17
 321 12 280.995 -13 242 -13 c 0
 182 -13 162 14 140 36.1504 c 1
EndSplineSet
Fore
197.045 37.8496 m 1
 147.764 -194 l 1
 28.7637 -194 l 1
 162.25 434 l 1
 282.949 434 l 0
 238.027 227.897 l 0
 216.948 128.729 273.172 100 307.256 100 c 1
 352.813 100 408.743 172.865 420.463 228 c 0
 464.25 434 l 9
 583.25 434 l 1
 491 0 l 1
 372 0 l 1
 380.708 40.9658 l 17
 355.892 3.80566 308.771 -14 286.024 -14 c 0
 250.73 -14 204.253 10.877 197.045 37.8496 c 1
EndSplineSet
EndChar
StartChar: paragraph
Encoding: 117 182 155
Width: 628
Flags: HW
Back
310 615 m 1
 310 365 l 1
 327 365 398 361 416 361 c 1
 416 621 l 1
 399 621 328 615 310 615 c 1
240 599 m 1
 188 582 124 554 124 486 c 1
 124 410 186 392 240 378 c 1
 240 599 l 1
310 66 m 1
 416 66 l 1
 416 299 l 1
 398 299 328 304 310 304 c 1
 310 66 l 1
240 0 m 1
 240 314 l 1
 134 337 54 373 54 486 c 0
 54 618 218 682 394 682 c 1
 490 682 l 0
 490 0 l 1
 240 0 l 1
EndSplineSet
Fore
485.684 596 m 1
 441.472 388 l 1
 446.604 388 506.635 381.4 512.069 381.4 c 1
 558.534 600 l 1
 553.402 600 491.118 596 485.684 596 c 1
358.766 558.75 m 1
 335.562 548.708 286.116 532.168 277.578 492 c 1
 265.84 436.777 308.181 423.697 327.897 413.525 c 1
 358.766 558.75 l 1
382.807 112 m 1
 454.807 112 l 1
 489.666 276 l 1
 484.231 276 423.589 278.3 418.154 278.3 c 1
 382.807 112 l 1
240 0 m 1
 304.192 302 l 1
 214.99 327.407 132.045 367.174 158.578 492 c 0
 188.926 634.776 413.169 704 573.64 704 c 1
 706.376 703.7 l 0
 556.8 0 l 1
 240 0 l 1
EndSplineSet
EndChar
StartChar: cedilla
Encoding: 119 184 157
Width: 258
Flags: HW
Back
52 -93 m 1
 67 -82 98 -60 98 -42 c 0
 98 -26 87 -14 71 9 c 0
 134 36 l 0
 155 16 175 -14 175 -48 c 0
 175 -102 107 -132 73 -154 c 1
 52 -93 l 1
EndSplineSet
Fore
3.25879 -116.104 m 1
 27.0928 -103.788 74.5371 -82.1543 78.8213 -62 c 0
 82.2227 -46 85.623 -30 69.2998 -8 c 9
 103.809 9.20312 157.781 36.1113 157.781 36.1113 c 0
 179.552 12.0371 197.482 -24.0742 188.784 -65 c 0
 177.306 -119 93.041 -156 45.165 -178 c 1
 3.25879 -116.104 l 1
EndSplineSet
EndChar
StartChar: guillemotright
Encoding: 122 187 158
Width: 480
Flags: HWO
Back
109 546 m 1
 203 404 l 1
 109 262 l 1
 43 262 l 1
 137 404 l 1
 43 546 l 1
 109 546 l 1
305 546 m 1
 399 404 l 1
 305 262 l 1
 239 262 l 1
 333 404 l 1
 239 546 l 1
 305 546 l 1
EndSplineSet
Fore
283.15 546.611 m 1
 346.961 403.779 l 1
 222.689 262 l 1
 117.643 261.611 l 1
 241.69 403.779 l 1
 178.056 546 l 1
 283.15 546.611 l 1
455.15 546.611 m 1
 516.962 403.779 l 1
 394.689 262 l 1
 289.643 261.611 l 1
 411.69 403.779 l 1
 348.056 546 l 1
 455.15 546.611 l 1
EndSplineSet
EndChar
StartChar: AE
Encoding: 133 198 166
Width: 776
Flags: HW
Back
378.428 315.11 m 1
 249.242 315.11 l 0
 123.015 0 l 0
 35.4453 0 l 1
 324.218 711 l 1
 670.327 711 l 1
 670.327 638.285 l 0
 454.53 638.285 l 0
 454.53 384.957 l 1
 670.327 384.957 l 1
 670.327 313.025 l 0
 454.53 313.025 l 0
 454.53 71.9326 l 0
 670.327 71.9326 l 1
 670.327 0 l 1
 378.428 0 l 1
 378.428 315.11 l 1
377.385 603.883 m 1
 377.385 640.37 l 1
 278.645 384.957 l 1
 378.428 384.957 l 1
 377.385 603.883 l 1
EndSplineSet
Fore
461.854 291 m 1xb0
 326.246 291 l 0xb0
 150.406 0 l 0
 5 0 l 1
 437.128 711 l 1
 870.128 711 l 1
 843.853 587.384 l 0
 654.589 587.384 l 0
 616.942 410.284 l 1
 806.209 410.284 l 1
 780.216 288 l 0
 590.589 288 l 0xd0
 555.365 122.285 l 0
 744.992 122.285 l 1
 719 0 l 1
 400 0 l 1
 461.854 291 l 1xb0
533.485 628 m 1
 390.522 409.74 l 1
 486.975 409.74 l 1
 533.485 628 l 1
EndSplineSet
EndChar
StartChar: Eth
Encoding: 143 208 176
Width: 723
Flags: HW
Back
154 323.44 m 1
 65.5195 323.44 l 1
 65.5195 392.08 l 1
 154 392.08 l 1
 154 711 l 1
 340.08 711 l 1
 518.96 711 635.36 553.28 635.36 354.64 c 1
 635.36 156 515.84 0 340.08 0 c 0
 229.76 0 l 1
 154 0 l 1
 154 323.44 l 1
230.8 323.44 m 1
 230.8 69.6797 l 1
 340.08 69.6797 l 1
 465.92 69.6797 558.56 185.12 558.56 354.64 c 1
 558.56 524.16 465.92 640.64 340.08 640.64 c 1
 230.8 640.64 l 1
 230.8 392.08 l 1
 377.52 392.08 l 1
 377.52 323.44 l 1
 230.8 323.44 l 1
EndSplineSet
Fore
190.555 299 m 1
 129.555 299 l 1
 154.357 415.688 l 1
 215.357 415.688 l 1
 278.128 711 l 1
 491.128 711 l 1
 686.534 711 780.197 553.439 738.018 355 c 1
 695.752 156.158 531.998 0 340 0 c 0
 230 0 l 1
 127 0 l 1
 190.555 299 l 1
321.531 299 m 1
 282.738 118.455 l 1
 365.179 118.455 l 1
 475.767 118.455 577.547 214.282 607.458 355 c 1
 637.239 495.113 576.291 591.388 465.703 591.388 c 1
 383.264 591.388 l 1
 346.334 415.688 l 1
 466.357 415.688 l 1
 441.555 299 l 1
 321.531 299 l 1
EndSplineSet
EndChar
StartChar: figuredash
Encoding: 191 8210 186
Width: 575
Flags: HW
Back
78 330 m 1
 453 330 l 1
 453 264 l 1
 78 264 l 1
 78 330 l 1
EndSplineSet
Fore
173.032 353 m 1
 548.032 353 l 1
 524.227 241 l 1
 149.227 241 l 1
 173.032 353 l 1
EndSplineSet
EndChar
StartChar: endash
Encoding: 192 8211 187
Width: 489
Flags: HW
Back
78 330 m 1
 413 330 l 1
 413 264 l 1
 78 264 l 1
 78 330 l 1
EndSplineSet
Fore
153.032 353 m 1
 488.032 353 l 1
 464.227 241 l 1
 129.227 241 l 1
 153.032 353 l 1
EndSplineSet
EndChar
StartChar: emdash
Encoding: 193 8212 188
Width: 630
Flags: HW
Back
68 330 m 1
 561 330 l 1
 561 264 l 1
 68 264 l 1
 68 330 l 1
EndSplineSet
Fore
143.032 353 m 1
 636.032 353 l 1
 612.227 241 l 1
 119.227 241 l 1
 143.032 353 l 1
EndSplineSet
EndChar
